ffmpeg version 4.4.2-0ubuntu0.22.04.1 Copyright (c) 2000-2021 the FFmpeg developers
  built with gcc 11 (Ubuntu 11.2.0-19ubuntu1)
  configuration: --prefix=/usr --extra-version=0ubuntu0.22.04.1 --toolchain=hardened --libdir=/usr/lib/x86_64-linux-gnu --incdir=/usr/include/x86_64-linux-gnu --arch=amd64 --enable-gpl --disable-stripping --enable-gnutls --enable-ladspa --enable-libaom --enable-libass --enable-libbluray --enable-libbs2b --enable-libcaca --enable-libcdio --enable-libcodec2 --enable-libdav1d --enable-libflite --enable-libfontconfig --enable-libfreetype --enable-libfribidi --enable-libgme --enable-libgsm --enable-libjack --enable-libmp3lame --enable-libmysofa --enable-libopenjpeg --enable-libopenmpt --enable-libopus --enable-libpulse --enable-librabbitmq --enable-librubberband --enable-libshine --enable-libsnappy --enable-libsoxr --enable-libspeex --enable-libsrt --enable-libssh --enable-libtheora --enable-libtwolame --enable-libvidstab --enable-libvorbis --enable-libvpx --enable-libwebp --enable-libx265 --enable-libxml2 --enable-libxvid --enable-libzimg --enable-libzmq --enable-libzvbi --enable-lv2 --enable-omx --enable-openal --enable-opencl --enable-opengl --enable-sdl2 --enable-pocketsphinx --enable-librsvg --enable-libmfx --enable-libdc1394 --enable-libdrm --enable-libiec61883 --enable-chromaprint --enable-frei0r --enable-libx264 --enable-shared
  libavutil      56. 70.100 / 56. 70.100
  libavcodec     58.134.100 / 58.134.100
  libavformat    58. 76.100 / 58. 76.100
  libavdevice    58. 13.100 / 58. 13.100
  libavfilter     7.110.100 /  7.110.100
  libswscale      5.  9.100 /  5.  9.100
  libswresample   3.  9.100 /  3.  9.100
  libpostproc    55.  9.100 / 55.  9.100
Input #0, flv, from '/storage/32426326/20250727/32426326-20250727-122022-426.flv':
  Metadata:
    cdn_ip          : 192.168.252.7
    fps             : 60
    encoder         : obs-output module (libobs version 31.0.2)
    4.0             : false
    5.1             : false
    fileSize        : 0
    displayWidth    : 2560
    audiochannels   : 2
    2.1             : false
    7.1             : false
    3.1             : false
    displayHeight   : 1440
    4.1             : false
    Title           : 技术主播没有GG
    Artist          : 蓝音BuBuLine (32426326)
    Comment         : mikufans直播间 32426326 的直播录像
                    : 主播名: 蓝音BuBuLine
                    : 直播标题: 技术主播没有GG
                    : 直播分区: 单机游戏·主机游戏
                    : 录制时间: 2025-07-27T12:20:22.5368652+00:00
                    : 直播服务器:
                    : d1--ov-gotcha07b.bilivideo.com [156.59.188.247]
                    : 
                    : 使用 mikufans录播姬 录制 https://rec.danmuji.org
                    : 录播姬版本: 2.17.3
    RecordedBy      : BililiveRecorder mikufans录播姬
    RecordedFrom    : d1--ov-gotcha07b.bilivideo.com
    StreamServers   : d1--ov-gotcha07b.bilivideo.com [156.59.188.247]
    RecorderVersion : 2.17.3+Branch.tags-v2.17.3.Sha.96407e2eba9a597dd9997c6fb731725f4294a371
    StartTime       : Sun, 27 Jul 2025 12:20:22 +0000
    RoomId          : 32426326
    ShortId         : 0
    Name            : 蓝音BuBuLine
    StreamTitle     : 技术主播没有GG
    AreaNameParent  : 单机游戏
    AreaNameChild   : 主机游戏
  Duration: 07:21:36.95, start: 0.035000, bitrate: 8962 kb/s
  Stream #0:0: Video: h264 (High), yuv420p(tv, bt709, progressive), 2560x1440 [SAR 1:1 DAR 16:9], 10240 kb/s, 60 fps, 60 tbr, 1k tbn, 120 tbc
  Stream #0:1: Audio: aac (LC), 48000 Hz, stereo, fltp, 196 kb/s
Stream mapping:
  Stream #0:0 -> #0:0 (h264 (native) -> png (native))
Press [q] to stop, [?] for help
Output #0, image2, to '/storage/32426326/20250727/32426326-20250727-122022-426.all.thumb.png':
  Metadata:
    cdn_ip          : 192.168.252.7
    fps             : 60
    AreaNameChild   : 主机游戏
    4.0             : false
    5.1             : false
    fileSize        : 0
    displayWidth    : 2560
    audiochannels   : 2
    2.1             : false
    7.1             : false
    3.1             : false
    displayHeight   : 1440
    4.1             : false
    Title           : 技术主播没有GG
    Artist          : 蓝音BuBuLine (32426326)
    Comment         : mikufans直播间 32426326 的直播录像
                    : 主播名: 蓝音BuBuLine
                    : 直播标题: 技术主播没有GG
                    : 直播分区: 单机游戏·主机游戏
                    : 录制时间: 2025-07-27T12:20:22.5368652+00:00
                    : 直播服务器:
                    : d1--ov-gotcha07b.bilivideo.com [156.59.188.247]
                    : 
                    : 使用 mikufans录播姬 录制 https://rec.danmuji.org
                    : 录播姬版本: 2.17.3
    RecordedBy      : BililiveRecorder mikufans录播姬
    RecordedFrom    : d1--ov-gotcha07b.bilivideo.com
    StreamServers   : d1--ov-gotcha07b.bilivideo.com [156.59.188.247]
    RecorderVersion : 2.17.3+Branch.tags-v2.17.3.Sha.96407e2eba9a597dd9997c6fb731725f4294a371
    StartTime       : Sun, 27 Jul 2025 12:20:22 +0000
    RoomId          : 32426326
    ShortId         : 0
    Name            : 蓝音BuBuLine
    StreamTitle     : 技术主播没有GG
    AreaNameParent  : 单机游戏
    encoder         : Lavf58.76.100
  Stream #0:0: Video: png, rgb24(pc, gbr/bt709/bt709, progressive), 2560x1440 [SAR 1:1 DAR 16:9], q=2-31, 200 kb/s, 60 fps, 60 tbn
    Metadata:
      encoder         : Lavc58.134.100 png
frame=    1 fps=0.0 q=0.0 size=N/A time=00:00:00.00 bitrate=N/A speed=   0x    frame=    1 fps=0.0 q=-0.0 Lsize=N/A time=00:00:00.01 bitrate=N/A speed=0.0575x    
video:1443kB audio:0kB subtitle:0kB other streams:0kB global headers:0kB muxing overhead: unknown
ffmpeg version 4.4.2-0ubuntu0.22.04.1 Copyright (c) 2000-2021 the FFmpeg developers
  built with gcc 11 (Ubuntu 11.2.0-19ubuntu1)
  configuration: --prefix=/usr --extra-version=0ubuntu0.22.04.1 --toolchain=hardened --libdir=/usr/lib/x86_64-linux-gnu --incdir=/usr/include/x86_64-linux-gnu --arch=amd64 --enable-gpl --disable-stripping --enable-gnutls --enable-ladspa --enable-libaom --enable-libass --enable-libbluray --enable-libbs2b --enable-libcaca --enable-libcdio --enable-libcodec2 --enable-libdav1d --enable-libflite --enable-libfontconfig --enable-libfreetype --enable-libfribidi --enable-libgme --enable-libgsm --enable-libjack --enable-libmp3lame --enable-libmysofa --enable-libopenjpeg --enable-libopenmpt --enable-libopus --enable-libpulse --enable-librabbitmq --enable-librubberband --enable-libshine --enable-libsnappy --enable-libsoxr --enable-libspeex --enable-libsrt --enable-libssh --enable-libtheora --enable-libtwolame --enable-libvidstab --enable-libvorbis --enable-libvpx --enable-libwebp --enable-libx265 --enable-libxml2 --enable-libxvid --enable-libzimg --enable-libzmq --enable-libzvbi --enable-lv2 --enable-omx --enable-openal --enable-opencl --enable-opengl --enable-sdl2 --enable-pocketsphinx --enable-librsvg --enable-libmfx --enable-libdc1394 --enable-libdrm --enable-libiec61883 --enable-chromaprint --enable-frei0r --enable-libx264 --enable-shared
  libavutil      56. 70.100 / 56. 70.100
  libavcodec     58.134.100 / 58.134.100
  libavformat    58. 76.100 / 58. 76.100
  libavdevice    58. 13.100 / 58. 13.100
  libavfilter     7.110.100 /  7.110.100
  libswscale      5.  9.100 /  5.  9.100
  libswresample   3.  9.100 /  3.  9.100
  libpostproc    55.  9.100 / 55.  9.100
[flv @ 0x61da07416400] Auto-inserting h264_mp4toannexb bitstream filter
Input #0, concat, from '/storage/32426326/20250727/32426326-20250727-122022-426.all.concat.txt':
  Duration: N/A, start: 0.000000, bitrate: 10436 kb/s
  Stream #0:0: Video: h264 (High), yuv420p(tv, bt709, progressive), 2560x1440 [SAR 1:1 DAR 16:9], 10240 kb/s, 60 fps, 60 tbr, 1k tbn, 120 tbc
  Stream #0:1: Audio: aac (LC), 48000 Hz, stereo, fltp, 196 kb/s
Output #0, flv, to '/storage/32426326/20250727/32426326-20250727-122022-426.all.flv':
  Metadata:
    encoder         : Lavf58.76.100
  Stream #0:0: Video: h264 (High) ([7][0][0][0] / 0x0007), yuv420p(tv, bt709, progressive), 2560x1440 [SAR 1:1 DAR 16:9], q=2-31, 10240 kb/s, 60 fps, 60 tbr, 1k tbn, 1k tbc
  Stream #0:1: Audio: aac (LC) ([10][0][0][0] / 0x000A), 48000 Hz, stereo, fltp, 196 kb/s
Stream mapping:
  Stream #0:0 -> #0:0 (copy)
  Stream #0:1 -> #0:1 (copy)
Press [q] to stop, [?] for help
frame=    1 fps=0.0 q=-1.0 size=       0kB time=00:00:00.00 bitrate=N/A speed=   0x    frame= 4520 fps=0.0 q=-1.0 size=   30720kB time=00:01:15.39 bitrate=3338.1kbits/s speed= 151x    frame= 6275 fps=6273 q=-1.0 size=   66304kB time=00:01:44.63 bitrate=5190.9kbits/s speed= 105x    frame= 8322 fps=5532 q=-1.0 size=  103424kB time=00:02:18.71 bitrate=6107.9kbits/s speed=92.2x    frame=10432 fps=5204 q=-1.0 size=  136960kB time=00:02:53.88 bitrate=6452.4kbits/s speed=86.7x    frame=12212 fps=4876 q=-1.0 size=  173056kB time=00:03:23.52 bitrate=6965.6kbits/s speed=81.3x    frame=14353 fps=4777 q=-1.0 size=  208384kB time=00:03:59.19 bitrate=7136.8kbits/s speed=79.6x    frame=15930 fps=4545 q=-1.0 size=  241408kB time=00:04:25.46 bitrate=7449.6kbits/s speed=75.7x    frame=17479 fps=4364 q=-1.0 size=  273408kB time=00:04:51.26 bitrate=7689.8kbits/s speed=72.7x    frame=19211 fps=4263 q=-1.0 size=  309504kB time=00:05:20.07 bitrate=7921.4kbits/s speed=  71x    frame=20967 fps=4188 q=-1.0 size=  345856kB time=00:05:49.33 bitrate=8110.3kbits/s speed=69.8x    frame=23139 fps=4202 q=-1.0 size=  382976kB time=00:06:25.53 bitrate=8137.6kbits/s speed=  70x    frame=25073 fps=4174 q=-1.0 size=  420096kB time=00:06:57.75 bitrate=8238.0kbits/s speed=69.5x    frame=27174 fps=4175 q=-1.0 size=  455424kB time=00:07:32.72 bitrate=8240.8kbits/s speed=69.6x    frame=28905 fps=4124 q=-1.0 size=  491008kB time=00:08:01.60 bitrate=8352.0kbits/s speed=68.7x    frame=30569 fps=4070 q=-1.0 size=  525568kB time=00:08:29.32 bitrate=8453.3kbits/s speed=67.8x    frame=32221 fps=4022 q=-1.0 size=  559872kB time=00:08:56.79 bitrate=8544.1kbits/s speed=  67x    frame=34025 fps=3998 q=-1.0 size=  597504kB time=00:09:26.87 bitrate=8634.7kbits/s speed=66.6x    frame=35670 fps=3958 q=-1.0 size=  631552kB time=00:09:54.26 bitrate=8706.0kbits/s speed=65.9x    frame=37283 fps=3919 q=-1.0 size=  665088kB time=00:10:21.11 bitrate=8771.9kbits/s speed=65.3x    frame=39006 fps=3895 q=-1.0 size=  701184kB time=00:10:49.82 bitrate=8839.4kbits/s speed=64.9x    frame=40667 fps=3868 q=-1.0 size=  735488kB time=00:11:17.52 bitrate=8892.9kbits/s speed=64.4x    frame=42329 fps=3843 q=-1.0 size=  770048kB time=00:11:45.18 bitrate=8945.6kbits/s speed=  64x    frame=43994 fps=3821 q=-1.0 size=  804352kB time=00:12:12.91 bitrate=8990.5kbits/s speed=63.7x    frame=45588 fps=3795 q=-1.0 size=  837888kB time=00:12:39.42 bitrate=9038.3kbits/s speed=63.2x    frame=47359 fps=3784 q=-1.0 size=  874752kB time=00:13:08.96 bitrate=9082.8kbits/s speed=  63x    frame=48957 fps=3762 q=-1.0 size=  907776kB time=00:13:35.56 bitrate=9118.3kbits/s speed=62.7x    frame=50476 fps=3735 q=-1.0 size=  939264kB time=00:14:00.85 bitrate=9150.7kbits/s speed=62.2x    frame=52111 fps=3718 q=-1.0 size=  973312kB time=00:14:28.06 bitrate=9185.2kbits/s speed=61.9x    frame=53644 fps=3695 q=-1.0 size= 1005056kB time=00:14:53.60 bitrate=9213.7kbits/s speed=61.6x    frame=55161 fps=3673 q=-1.0 size= 1036800kB time=00:15:18.86 bitrate=9243.5kbits/s speed=61.2x    frame=56856 fps=3664 q=-1.0 size= 1071616kB time=00:15:47.09 bitrate=9269.0kbits/s speed=  61x    frame=58767 fps=3669 q=-1.0 size= 1105664kB time=00:16:18.90 bitrate=9252.8kbits/s speed=61.1x    frame=60497 fps=3663 q=-1.0 size= 1141504kB time=00:16:47.75 bitrate=9279.3kbits/s speed=  61x    frame=62518 fps=3674 q=-1.0 size= 1176576kB time=00:17:21.38 bitrate=9255.4kbits/s speed=61.2x    frame=64148 fps=3662 q=-1.0 size= 1210368kB time=00:17:48.50 bitrate=9279.7kbits/s speed=  61x    frame=65776 fps=3651 q=-1.0 size= 1243904kB time=00:18:15.61 bitrate=9300.7kbits/s speed=60.8x    frame=67545 fps=3647 q=-1.0 size= 1280768kB time=00:18:45.08 bitrate=9325.5kbits/s speed=60.8x    frame=69260 fps=3641 q=-1.0 size= 1316352kB time=00:19:13.66 bitrate=9347.2kbits/s speed=60.7x    frame=71038 fps=3639 q=-1.0 size= 1353216kB time=00:19:43.31 bitrate=9368.2kbits/s speed=60.6x    frame=72734 fps=3633 q=-1.0 size= 1388544kB time=00:20:11.55 bitrate=9388.7kbits/s speed=60.5x    frame=74313 fps=3621 q=-1.0 size= 1421312kB time=00:20:37.87 bitrate=9405.9kbits/s speed=60.3x    frame=75884 fps=3610 q=-1.0 size= 1454080kB time=00:21:04.04 bitrate=9423.6kbits/s speed=60.1x    frame=77540 fps=3603 q=-1.0 size= 1488384kB time=00:21:31.62 bitrate=9439.9kbits/s speed=  60x    frame=79211 fps=3597 q=-1.0 size= 1522944kB time=00:21:59.45 bitrate=9455.4kbits/s speed=59.9x    frame=80821 fps=3588 q=-1.0 size= 1556736kB time=00:22:26.28 bitrate=9472.6kbits/s speed=59.8x    frame=82414 fps=3580 q=-1.0 size= 1589504kB time=00:22:52.82 bitrate=9485.0kbits/s speed=59.6x    frame=83934 fps=3568 q=-1.0 size= 1621504kB time=00:23:18.11 bitrate=9500.9kbits/s speed=59.4x    frame=85635 fps=3565 q=-1.0 size= 1656576kB time=00:23:46.48 bitrate=9513.4kbits/s speed=59.4x    frame=87281 fps=3559 q=-1.0 size= 1690880kB time=00:24:13.89 bitrate=9527.3kbits/s speed=59.3x    frame=89088 fps=3560 q=-1.0 size= 1724160kB time=00:24:44.00 bitrate=9517.7kbits/s speed=59.3x    frame=90829 fps=3558 q=-1.0 size= 1760256kB time=00:25:13.00 bitrate=9530.7kbits/s speed=59.3x    frame=92903 fps=3570 q=-1.0 size= 1795840kB time=00:25:47.54 bitrate=9506.4kbits/s speed=59.5x    frame=94624 fps=3567 q=-1.0 size= 1831680kB time=00:26:16.21 bitrate=9519.7kbits/s speed=59.4x    frame=96372 fps=3566 q=-1.0 size= 1868032kB time=00:26:45.32 bitrate=9532.6kbits/s speed=59.4x    frame=97990 fps=3560 q=-1.0 size= 1901568kB time=00:27:12.26 bitrate=9543.6kbits/s speed=59.3x    frame=99583 fps=3553 q=-1.0 size= 1934592kB time=00:27:38.82 bitrate=9553.8kbits/s speed=59.2x    frame=101155 fps=3546 q=-1.0 size= 1967360kB time=00:28:05.00 bitrate=9564.7kbits/s speed=59.1x    frame=102857 fps=3543 q=-1.0 size= 2002432kB time=00:28:33.38 bitrate=9574.0kbits/s speed=  59x    frame=104626 fps=3543 q=-1.0 size= 2039296kB time=00:29:02.84 bitrate=9585.4kbits/s speed=  59x    frame=106452 fps=3545 q=-1.0 size= 2077184kB time=00:29:33.24 bitrate=9596.1kbits/s speed=59.1x    frame=108038 fps=3539 q=-1.0 size= 2110208kB time=00:29:59.64 bitrate=9605.7kbits/s speed=58.9x    frame=109867 fps=3541 q=-1.0 size= 2148096kB time=00:30:30.13 bitrate=9615.3kbits/s speed=  59x    frame=111623 fps=3540 q=-1.0 size= 2184704kB time=00:30:59.36 bitrate=9625.4kbits/s speed=  59x    frame=113187 fps=3534 q=-1.0 size= 2217472kB time=00:31:25.43 bitrate=9634.7kbits/s speed=58.9x    frame=115244 fps=3543 q=-1.0 size= 2255360kB time=00:31:59.69 bitrate=9624.4kbits/s speed=  59x    frame=117414 fps=3555 q=-1.0 size= 2292992kB time=00:32:35.82 bitrate=9604.3kbits/s speed=59.2x    frame=119243 fps=3556 q=-1.0 size= 2330880kB time=00:33:06.31 bitrate=9613.1kbits/s speed=59.2x    frame=121017 fps=3556 q=-1.0 size= 2368000kB time=00:33:35.86 bitrate=9623.0kbits/s speed=59.2x    frame=122776 fps=3555 q=-1.0 size= 2404352kB time=00:34:05.13 bitrate=9630.9kbits/s speed=59.2x    frame=124720 fps=3560 q=-1.0 size= 2440448kB time=00:34:37.54 bitrate=9623.0kbits/s speed=59.3x    frame=126531 fps=3561 q=-1.0 size= 2478080kB time=00:35:07.67 bitrate=9631.7kbits/s speed=59.3x    frame=128537 fps=3567 q=-1.0 size= 2513408kB time=00:35:41.07 bitrate=9616.6kbits/s speed=59.4x    frame=130434 fps=3570 q=-1.0 size= 2551552kB time=00:36:12.67 bitrate=9620.6kbits/s speed=59.5x    frame=132260 fps=3571 q=-1.0 size= 2589440kB time=00:36:43.11 bitrate=9628.5kbits/s speed=59.5x    frame=133963 fps=3569 q=-1.0 size= 2624768kB time=00:37:11.46 bitrate=9635.9kbits/s speed=59.4x    frame=135564 fps=3564 q=-1.0 size= 2658048kB time=00:37:38.12 bitrate=9642.9kbits/s speed=59.4x    frame=137225 fps=3561 q=-1.0 size= 2692608kB time=00:38:05.81 bitrate=9649.9kbits/s speed=59.3x    frame=138879 fps=3558 q=-1.0 size= 2727168kB time=00:38:33.35 bitrate=9657.4kbits/s speed=59.3x    frame=140684 fps=3558 q=-1.0 size= 2764544kB time=00:39:03.41 bitrate=9664.2kbits/s speed=59.3x    frame=142434 fps=3557 q=-1.0 size= 2800896kB time=00:39:32.56 bitrate=9670.9kbits/s speed=59.3x    frame=144132 fps=3555 q=-1.0 size= 2836224kB time=00:40:00.87 bitrate=9677.4kbits/s speed=59.2x    frame=145923 fps=3556 q=-1.0 size= 2873344kB time=00:40:30.70 bitrate=9683.8kbits/s speed=59.2x    frame=147689 fps=3555 q=-1.0 size= 2910208kB time=00:41:00.11 bitrate=9690.8kbits/s speed=59.2x    frame=148864 fps=3541 q=-1.0 size= 2942720kB time=00:41:31.73 bitrate=9674.7kbits/s speed=59.3x    frame=150259 fps=3532 q=-1.0 size= 2980608kB time=00:42:07.73 bitrate=9659.7kbits/s speed=59.4x    frame=151645 fps=3523 q=-1.0 size= 3017984kB time=00:42:42.64 bitrate=9647.6kbits/s speed=59.5x    frame=152997 fps=3514 q=-1.0 size= 3051520kB time=00:43:13.01 bitrate=9640.5kbits/s speed=59.6x    frame=154704 fps=3513 q=-1.0 size= 3089152kB time=00:43:44.67 bitrate=9641.7kbits/s speed=59.6x    frame=156444 fps=3512 q=-1.0 size= 3125248kB time=00:44:13.65 bitrate=9647.8kbits/s speed=59.6x    frame=158032 fps=3508 q=-1.0 size= 3158784kB time=00:44:40.12 bitrate=9655.0kbits/s speed=59.5x    frame=160037 fps=3514 q=-1.0 size= 3194880kB time=00:45:13.48 bitrate=9645.3kbits/s speed=59.6x    frame=161957 fps=3517 q=-1.0 size= 3228160kB time=00:45:45.45 bitrate=9632.3kbits/s speed=59.6x    frame=163662 fps=3516 q=-1.0 size= 3263744kB time=00:46:13.86 bitrate=9638.8kbits/s speed=59.6x    frame=165410 fps=3516 q=-1.0 size= 3300096kB time=00:46:42.99 bitrate=9644.8kbits/s speed=59.6x    frame=167029 fps=3513 q=-1.0 size= 3333632kB time=00:47:09.95 bitrate=9650.0kbits/s speed=59.5x    frame=168696 fps=3511 q=-1.0 size= 3368192kB time=00:47:37.71 bitrate=9655.3kbits/s speed=59.5x    frame=170389 fps=3510 q=-1.0 size= 3403520kB time=00:48:05.91 bitrate=9661.3kbits/s speed=59.4x    frame=172012 fps=3507 q=-1.0 size= 3437056kB time=00:48:32.94 bitrate=9665.9kbits/s speed=59.4x    frame=173735 fps=3507 q=-1.0 size= 3473152kB time=00:49:01.64 bitrate=9672.2kbits/s speed=59.4x    frame=175479 fps=3506 q=-1.0 size= 3509248kB time=00:49:30.65 bitrate=9677.2kbits/s speed=59.4x    frame=177070 fps=3503 q=-1.0 size= 3542272kB time=00:49:57.17 bitrate=9681.9kbits/s speed=59.3x    frame=178853 fps=3504 q=-1.0 size= 3579392kB time=00:50:26.86 bitrate=9687.4kbits/s speed=59.3x    frame=180547 fps=3502 q=-1.0 size= 3614720kB time=00:50:55.12 bitrate=9692.5kbits/s speed=59.3x    frame=182215 fps=3501 q=-1.0 size= 3649280kB time=00:51:22.88 bitrate=9697.0kbits/s speed=59.2x    frame=183930 fps=3500 q=-1.0 size= 3684864kB time=00:51:51.46 bitrate=9701.7kbits/s speed=59.2x    frame=185927 fps=3505 q=-1.0 size= 3720960kB time=00:52:24.73 bitrate=9693.1kbits/s speed=59.3x    frame=187723 fps=3506 q=-1.0 size= 3752192kB time=00:52:54.63 bitrate=9682.4kbits/s speed=59.3x    frame=189345 fps=3503 q=-1.0 size= 3785984kB time=00:53:21.63 bitrate=9687.2kbits/s speed=59.2x    frame=190949 fps=3500 q=-1.0 size= 3819264kB time=00:53:48.35 bitrate=9691.4kbits/s speed=59.2x    frame=192579 fps=3498 q=-1.0 size= 3853312kB time=00:54:15.52 bitrate=9696.2kbits/s speed=59.1x    frame=194241 fps=3496 q=-1.0 size= 3887616kB time=00:54:43.20 bitrate=9700.1kbits/s speed=59.1x    frame=195874 fps=3494 q=-1.0 size= 3921664kB time=00:55:10.41 bitrate=9704.6kbits/s speed=59.1x    frame=197561 fps=3493 q=-1.0 size= 3956736kB time=00:55:38.51 bitrate=9709.0kbits/s speed=  59x    frame=199289 fps=3493 q=-1.0 size= 3992576kB time=00:56:07.29 bitrate=9713.2kbits/s speed=  59x    frame=200906 fps=3491 q=-1.0 size= 4026368kB time=00:56:34.22 bitrate=9717.7kbits/s speed=  59x    frame=202640 fps=3490 q=-1.0 size= 4062464kB time=00:57:03.12 bitrate=9722.0kbits/s speed=  59x    frame=204271 fps=3488 q=-1.0 size= 4096256kB time=00:57:30.25 bitrate=9725.8kbits/s speed=58.9x    frame=205809 fps=3485 q=-1.0 size= 4128000kB time=00:57:55.88 bitrate=9728.9kbits/s speed=58.9x    frame=207511 fps=3484 q=-1.0 size= 4163328kB time=00:58:24.22 bitrate=9732.8kbits/s speed=58.8x    frame=209062 fps=3481 q=-1.0 size= 4195584kB time=00:58:50.06 bitrate=9736.4kbits/s speed=58.8x    frame=210697 fps=3479 q=-1.0 size= 4229632kB time=00:59:17.30 bitrate=9740.3kbits/s speed=58.7x    frame=212467 fps=3480 q=-1.0 size= 4266240kB time=00:59:46.77 bitrate=9743.9kbits/s speed=58.7x    frame=214281 fps=3481 q=-1.0 size= 4304128kB time=01:00:16.99 bitrate=9748.3kbits/s speed=58.8x    frame=215791 fps=3477 q=-1.0 size= 4335616kB time=01:00:42.13 bitrate=9751.8kbits/s speed=58.7x    frame=217515 fps=3477 q=-1.0 size= 4371456kB time=01:01:10.88 bitrate=9755.4kbits/s speed=58.7x    frame=219488 fps=3481 q=-1.0 size= 4406528kB time=01:01:43.73 bitrate=9746.4kbits/s speed=58.7x    frame=221002 fps=3477 q=-1.0 size= 4438016kB time=01:02:08.95 bitrate=9749.7kbits/s speed=58.7x    frame=223088 fps=3482 q=-1.0 size= 4473088kB time=01:02:43.73 bitrate=9736.0kbits/s speed=58.8x    frame=224814 fps=3482 q=-1.0 size= 4508928kB time=01:03:12.43 bitrate=9739.7kbits/s speed=58.7x    frame=226607 fps=3483 q=-1.0 size= 4546048kB time=01:03:42.31 bitrate=9743.1kbits/s speed=58.7x    frame=228344 fps=3483 q=-1.0 size= 4582144kB time=01:04:11.22 bitrate=9746.7kbits/s speed=58.7x    frame=230026 fps=3482 q=-1.0 size= 4616960kB time=01:04:39.23 bitrate=9749.9kbits/s speed=58.7x    frame=231717 fps=3481 q=-1.0 size= 4652288kB time=01:05:07.37 bitrate=9753.7kbits/s speed=58.7x    frame=233409 fps=3480 q=-1.0 size= 4687360kB time=01:05:35.57 bitrate=9756.9kbits/s speed=58.7x    frame=234857 fps=3476 q=-1.0 size= 4717568kB time=01:05:59.65 bitrate=9760.0kbits/s speed=58.6x    frame=236439 fps=3474 q=-1.0 size= 4750592kB time=01:06:25.99 bitrate=9763.4kbits/s speed=58.6x    frame=238036 fps=3472 q=-1.0 size= 4783616kB time=01:06:52.62 bitrate=9766.0kbits/s speed=58.5x    frame=239663 fps=3470 q=-1.0 size= 4817408kB time=01:07:19.71 bitrate=9769.1kbits/s speed=58.5x    frame=241390 fps=3470 q=-1.0 size= 4853248kB time=01:07:48.47 bitrate=9772.2kbits/s speed=58.5x    frame=243091 fps=3470 q=-1.0 size= 4888576kB time=01:08:16.81 bitrate=9775.2kbits/s speed=58.5x    frame=244713 fps=3468 q=-1.0 size= 4922368kB time=01:08:43.82 bitrate=9778.3kbits/s speed=58.4x    frame=246489 fps=3469 q=-1.0 size= 4959232kB time=01:09:13.41 bitrate=9781.3kbits/s speed=58.4x    frame=248247 fps=3469 q=-1.0 size= 4995584kB time=01:09:42.70 bitrate=9784.1kbits/s speed=58.4x    frame=249959 fps=3469 q=-1.0 size= 5031168kB time=01:10:11.21 bitrate=9787.0kbits/s speed=58.4x    frame=251746 fps=3469 q=-1.0 size= 5068288kB time=01:10:40.98 bitrate=9790.0kbits/s speed=58.4x    frame=253511 fps=3470 q=-1.0 size= 5104640kB time=01:11:10.39 bitrate=9792.4kbits/s speed=58.4x    frame=255109 fps=3468 q=-1.0 size= 5137920kB time=01:11:37.00 bitrate=9795.2kbits/s speed=58.4x    frame=256937 fps=3469 q=-1.0 size= 5174272kB time=01:12:07.45 bitrate=9795.1kbits/s speed=58.4x    frame=258844 fps=3471 q=-1.0 size= 5209344kB time=01:12:39.19 bitrate=9789.6kbits/s speed=58.5x    frame=260577 fps=3471 q=-1.0 size= 5245696kB time=01:13:08.08 bitrate=9793.1kbits/s speed=58.5x    frame=262689 fps=3476 q=-1.0 size= 5283072kB time=01:13:43.24 bitrate=9784.4kbits/s speed=58.5x    frame=264398 fps=3476 q=-1.0 size= 5318144kB time=01:14:11.70 bitrate=9786.4kbits/s speed=58.5x    frame=266074 fps=3475 q=-1.0 size= 5353216kB time=01:14:39.63 bitrate=9789.5kbits/s speed=58.5x    frame=267891 fps=3476 q=-1.0 size= 5390592kB time=01:15:09.88 bitrate=9791.8kbits/s speed=58.5x    frame=269542 fps=3475 q=-1.0 size= 5424896kB time=01:15:37.38 bitrate=9794.4kbits/s speed=58.5x    frame=271197 fps=3474 q=-1.0 size= 5459200kB time=01:16:04.95 bitrate=9796.8kbits/s speed=58.5x    frame=272998 fps=3474 q=-1.0 size= 5496832kB time=01:16:34.95 bitrate=9799.9kbits/s speed=58.5x    frame=274590 fps=3473 q=-1.0 size= 5529856kB time=01:17:01.46 bitrate=9802.2kbits/s speed=58.4x    frame=276353 fps=3473 q=-1.0 size= 5566208kB time=01:17:30.83 bitrate=9804.4kbits/s speed=58.4x    frame=277907 fps=3471 q=-1.0 size= 5598720kB time=01:17:56.71 bitrate=9807.0kbits/s speed=58.4x    frame=279637 fps=3471 q=-1.0 size= 5634816kB time=01:18:25.55 bitrate=9809.8kbits/s speed=58.4x    frame=281409 fps=3471 q=-1.0 size= 5671424kB time=01:18:55.04 bitrate=9812.0kbits/s speed=58.4x    frame=283216 fps=3472 q=-1.0 size= 5709056kB time=01:19:25.17 bitrate=9814.7kbits/s speed=58.4x    frame=284805 fps=3470 q=-1.0 size= 5742080kB time=01:19:51.60 bitrate=9817.0kbits/s speed=58.4x    frame=286643 fps=3471 q=-1.0 size= 5780224kB time=01:20:22.22 bitrate=9819.4kbits/s speed=58.4x    frame=288423 fps=3472 q=-1.0 size= 5817344kB time=01:20:51.88 bitrate=9822.1kbits/s speed=58.4x    frame=290406 fps=3475 q=-1.0 size= 5853696kB time=01:21:24.90 bitrate=9816.7kbits/s speed=58.4x    frame=292367 fps=3477 q=-1.0 size= 5888768kB time=01:21:57.55 bitrate=9809.9kbits/s speed=58.5x    frame=294117 fps=3478 q=-1.0 size= 5924864kB time=01:22:26.68 bitrate=9811.9kbits/s speed=58.5x    frame=295796 fps=3477 q=-1.0 size= 5959936kB time=01:22:54.68 bitrate=9814.5kbits/s speed=58.5x    frame=297377 fps=3475 q=-1.0 size= 5992960kB time=01:23:20.99 bitrate=9816.9kbits/s speed=58.4x    frame=298958 fps=3473 q=-1.0 size= 6025472kB time=01:23:47.32 bitrate=9818.5kbits/s speed=58.4x    frame=300421 fps=3470 q=-1.0 size= 6055936kB time=01:24:11.70 bitrate=9820.5kbits/s speed=58.3x    frame=302144 fps=3470 q=-1.0 size= 6091776kB time=01:24:40.41 bitrate=9822.8kbits/s speed=58.3x    frame=303904 fps=3470 q=-1.0 size= 6128384kB time=01:25:09.71 bitrate=9825.2kbits/s speed=58.3x    frame=305532 fps=3469 q=-1.0 size= 6162432kB time=01:25:36.85 bitrate=9827.5kbits/s speed=58.3x    frame=307305 fps=3469 q=-1.0 size= 6199040kB time=01:26:06.37 bitrate=9829.4kbits/s speed=58.3x    frame=309063 fps=3469 q=-1.0 size= 6235648kB time=01:26:35.67 bitrate=9831.7kbits/s speed=58.3x    frame=310697 fps=3468 q=-1.0 size= 6269696kB time=01:27:02.85 bitrate=9834.0kbits/s speed=58.3x    frame=312389 fps=3468 q=-1.0 size= 6305024kB time=01:27:31.04 bitrate=9836.3kbits/s speed=58.3x    frame=314153 fps=3468 q=-1.0 size= 6341376kB time=01:28:00.41 bitrate=9838.0kbits/s speed=58.3x    frame=315820 fps=3467 q=-1.0 size= 6376192kB time=01:28:28.22 bitrate=9840.2kbits/s speed=58.3x    frame=317568 fps=3468 q=-1.0 size= 6412288kB time=01:28:57.32 bitrate=9841.9kbits/s speed=58.3x    frame=319440 fps=3469 q=-1.0 size= 6451200kB time=01:29:28.54 bitrate=9844.0kbits/s speed=58.3x    frame=320988 fps=3467 q=-1.0 size= 6483456kB time=01:29:54.29 bitrate=9846.0kbits/s speed=58.3x    frame=322817 fps=3468 q=-1.0 size= 6520064kB time=01:30:24.76 bitrate=9846.0kbits/s speed=58.3x    frame=324812 fps=3471 q=-1.0 size= 6557184kB time=01:30:58.02 bitrate=9841.7kbits/s speed=58.3x    frame=326799 fps=3473 q=-1.0 size= 6594304kB time=01:31:31.09 bitrate=9837.8kbits/s speed=58.4x    frame=328730 fps=3475 q=-1.0 size= 6629888kB time=01:32:03.29 bitrate=9833.3kbits/s speed=58.4x    frame=330506 fps=3476 q=-1.0 size= 6666752kB time=01:32:32.86 bitrate=9835.3kbits/s speed=58.4x    frame=332111 fps=3474 q=-1.0 size= 6700288kB time=01:32:59.60 bitrate=9837.4kbits/s speed=58.4x    frame=333849 fps=3474 q=-1.0 size= 6736384kB time=01:33:28.55 bitrate=9839.3kbits/s speed=58.4x    frame=335581 fps=3474 q=-1.0 size= 6772480kB time=01:33:57.37 bitrate=9841.5kbits/s speed=58.4x    frame=337264 fps=3474 q=-1.0 size= 6807296kB time=01:34:25.41 bitrate=9843.1kbits/s speed=58.4x    frame=339128 fps=3475 q=-1.0 size= 6846208kB time=01:34:56.45 bitrate=9845.4kbits/s speed=58.4x    frame=340787 fps=3474 q=-1.0 size= 6880768kB time=01:35:24.12 bitrate=9847.3kbits/s speed=58.4x    frame=342627 fps=3475 q=-1.0 size= 6918912kB time=01:35:54.79 bitrate=9849.1kbits/s speed=58.4x    frame=344425 fps=3476 q=-1.0 size= 6956288kB time=01:36:24.72 bitrate=9851.1kbits/s speed=58.4x    frame=346063 fps=3475 q=-1.0 size= 6990080kB time=01:36:52.02 bitrate=9852.5kbits/s speed=58.4x    frame=347756 fps=3474 q=-1.0 size= 7025408kB time=01:37:20.22 bitrate=9854.4kbits/s speed=58.4x    frame=349413 fps=3474 q=-1.0 size= 7059712kB time=01:37:47.79 bitrate=9856.0kbits/s speed=58.3x    frame=351081 fps=3473 q=-1.0 size= 7094528kB time=01:38:15.57 bitrate=9858.0kbits/s speed=58.3x    frame=352866 fps=3473 q=-1.0 size= 7131648kB time=01:38:45.33 bitrate=9859.8kbits/s speed=58.3x    frame=354662 fps=3474 q=-1.0 size= 7168768kB time=01:39:15.22 bitrate=9861.3kbits/s speed=58.3x    frame=356284 fps=3473 q=-1.0 size= 7202560kB time=01:39:42.22 bitrate=9863.1kbits/s speed=58.3x    frame=358100 fps=3474 q=-1.0 size= 7240192kB time=01:40:12.49 bitrate=9864.7kbits/s speed=58.3x    frame=360183 fps=3477 q=-1.0 size= 7277568kB time=01:40:47.15 bitrate=9858.8kbits/s speed=58.4x    frame=361991 fps=3478 q=-1.0 size= 7315200kB time=01:41:17.30 bitrate=9860.6kbits/s speed=58.4x    frame=363911 fps=3479 q=-1.0 size= 7346944kB time=01:41:49.28 bitrate=9851.6kbits/s speed=58.4x    frame=365490 fps=3478 q=-1.0 size= 7379712kB time=01:42:15.56 bitrate=9853.1kbits/s speed=58.4x    frame=367283 fps=3478 q=-1.0 size= 7417088kB time=01:42:45.44 bitrate=9855.0kbits/s speed=58.4x    frame=368809 fps=3476 q=-1.0 size= 7448832kB time=01:43:10.84 bitrate=9856.6kbits/s speed=58.4x    frame=370633 fps=3477 q=-1.0 size= 7486464kB time=01:43:41.22 bitrate=9858.0kbits/s speed=58.4x    frame=372398 fps=3477 q=-1.0 size= 7523328kB time=01:44:10.62 bitrate=9860.0kbits/s speed=58.4x    frame=373998 fps=3476 q=-1.0 size= 7556608kB time=01:44:37.30 bitrate=9861.5kbits/s speed=58.3x    frame=375794 fps=3477 q=-1.0 size= 7593728kB time=01:45:07.21 bitrate=9863.0kbits/s speed=58.4x    frame=377546 fps=3477 q=-1.0 size= 7630336kB time=01:45:36.40 bitrate=9864.9kbits/s speed=58.3x    frame=379410 fps=3478 q=-1.0 size= 7668992kB time=01:46:07.42 bitrate=9866.5kbits/s speed=58.4x    frame=381216 fps=3478 q=-1.0 size= 7706624kB time=01:46:37.51 bitrate=9868.3kbits/s speed=58.4x    frame=382947 fps=3478 q=-1.0 size= 7742464kB time=01:47:06.38 bitrate=9869.7kbits/s speed=58.4x    frame=384733 fps=3479 q=-1.0 size= 7779584kB time=01:47:36.11 bitrate=9871.3kbits/s speed=58.4x    frame=386511 fps=3479 q=-1.0 size= 7816704kB time=01:48:05.74 bitrate=9873.1kbits/s speed=58.4x    frame=388120 fps=3478 q=-1.0 size= 7849984kB time=01:48:32.55 bitrate=9874.3kbits/s speed=58.4x    frame=389927 fps=3478 q=-1.0 size= 7887616kB time=01:49:02.66 bitrate=9876.0kbits/s speed=58.4x    frame=391689 fps=3479 q=-1.0 size= 7924224kB time=01:49:31.99 bitrate=9877.5kbits/s speed=58.4x    frame=393323 fps=3478 q=-1.0 size= 7958272kB time=01:49:59.24 bitrate=9879.0kbits/s speed=58.4x    frame=395152 fps=3479 q=-1.0 size= 7994624kB time=01:50:29.70 bitrate=9878.6kbits/s speed=58.4x    frame=397276 fps=3482 q=-1.0 size= 8033536kB time=01:51:05.05 bitrate=9874.0kbits/s speed=58.4x    frame=399234 fps=3484 q=-1.0 size= 8066816kB time=01:51:37.67 bitrate=9866.6kbits/s speed=58.4x    frame=401013 fps=3484 q=-1.0 size= 8103424kB time=01:52:07.31 bitrate=9867.7kbits/s speed=58.4x    frame=402709 fps=3484 q=-1.0 size= 8139008kB time=01:52:35.55 bitrate=9869.6kbits/s speed=58.4x    frame=404472 fps=3484 q=-1.0 size= 8175616kB time=01:53:04.89 bitrate=9871.1kbits/s speed=58.4x    frame=406259 fps=3484 q=-1.0 size= 8212480kB time=01:53:34.69 bitrate=9872.3kbits/s speed=58.4x    frame=407991 fps=3484 q=-1.0 size= 8248576kB time=01:54:03.53 bitrate=9873.9kbits/s speed=58.4x    frame=409583 fps=3483 q=-1.0 size= 8281856kB time=01:54:30.02 bitrate=9875.5kbits/s speed=58.4x    frame=411371 fps=3483 q=-1.0 size= 8318976kB time=01:54:59.81 bitrate=9876.9kbits/s speed=58.4x    frame=413043 fps=3483 q=-1.0 size= 8353792kB time=01:55:27.63 bitrate=9878.4kbits/s speed=58.4x    frame=414688 fps=3482 q=-1.0 size= 8387840kB time=01:55:55.03 bitrate=9879.6kbits/s speed=58.4x    frame=416285 fps=3481 q=-1.0 size= 8420864kB time=01:56:21.65 bitrate=9880.7kbits/s speed=58.4x    frame=417925 fps=3480 q=-1.0 size= 8454912kB time=01:56:48.97 bitrate=9882.0kbits/s speed=58.4x    frame=419664 fps=3480 q=-1.0 size= 8491520kB time=01:57:17.95 bitrate=9883.9kbits/s speed=58.4x    frame=421534 fps=3481 q=-1.0 size= 8524288kB time=01:57:49.10 bitrate=9878.3kbits/s speed=58.4x    frame=423366 fps=3482 q=-1.0 size= 8562176kB time=01:58:19.61 bitrate=9879.6kbits/s speed=58.4x    frame=425367 fps=3484 q=-1.0 size= 8596480kB time=01:58:52.91 bitrate=9872.9kbits/s speed=58.4x    frame=427043 fps=3483 q=-1.0 size= 8631296kB time=01:59:20.86 bitrate=9874.2kbits/s speed=58.4x    frame=428672 fps=3482 q=-1.0 size= 8665344kB time=01:59:47.98 bitrate=9875.7kbits/s speed=58.4x    frame=430393 fps=3482 q=-1.0 size= 8700928kB time=02:00:16.66 bitrate=9876.9kbits/s speed=58.4x    frame=431909 fps=3480 q=-1.0 size= 8732416kB time=02:00:41.90 bitrate=9878.1kbits/s speed=58.4x    frame=433628 fps=3480 q=-1.0 size= 8768256kB time=02:01:10.52 bitrate=9879.5kbits/s speed=58.3x    frame=435292 fps=3479 q=-1.0 size= 8803072kB time=02:01:38.28 bitrate=9881.1kbits/s speed=58.3x    frame=437092 fps=3480 q=-1.0 size= 8840704kB time=02:02:08.28 bitrate=9882.7kbits/s speed=58.3x    frame=438773 fps=3479 q=-1.0 size= 8875264kB time=02:02:36.30 bitrate=9883.5kbits/s speed=58.3x    frame=440483 fps=3479 q=-1.0 size= 8910848kB time=02:03:04.80 bitrate=9884.9kbits/s speed=58.3x    frame=442067 fps=3478 q=-1.0 size= 8944128kB time=02:03:31.20 bitrate=9886.4kbits/s speed=58.3x    frame=443812 fps=3478 q=-1.0 size= 8979968kB time=02:04:00.28 bitrate=9887.2kbits/s speed=58.3x    frame=445527 fps=3478 q=-1.0 size= 9015552kB time=02:04:28.87 bitrate=9888.4kbits/s speed=58.3x    frame=447319 fps=3478 q=-1.0 size= 9052928kB time=02:04:58.73 bitrate=9889.9kbits/s speed=58.3x    frame=449069 fps=3478 q=-1.0 size= 9089280kB time=02:05:27.90 bitrate=9891.1kbits/s speed=58.3x    frame=450618 fps=3477 q=-1.0 size= 9121280kB time=02:05:53.72 bitrate=9892.0kbits/s speed=58.3x    frame=452332 fps=3476 q=-1.0 size= 9156864kB time=02:06:22.28 bitrate=9893.2kbits/s speed=58.3x    frame=453965 fps=3476 q=-1.0 size= 9190912kB time=02:06:49.50 bitrate=9894.5kbits/s speed=58.3x    frame=455725 fps=3476 q=-1.0 size= 9227520kB time=02:07:18.84 bitrate=9895.7kbits/s speed=58.3x    frame=457355 fps=3475 q=-1.0 size= 9261312kB time=02:07:46.01 bitrate=9896.8kbits/s speed=58.2x    frame=458973 fps=3474 q=-1.0 size= 9293568kB time=02:08:13.04 bitrate=9896.3kbits/s speed=58.2x    frame=460935 fps=3476 q=-1.0 size= 9330176kB time=02:08:45.43 bitrate=9893.7kbits/s speed=58.3x    frame=462555 fps=3475 q=-1.0 size= 9363968kB time=02:09:12.43 bitrate=9894.9kbits/s speed=58.2x    frame=464213 fps=3474 q=-1.0 size= 9398528kB time=02:09:40.00 bitrate=9896.2kbits/s speed=58.2x    frame=466462 fps=3478 q=-1.0 size= 9436416kB time=02:10:17.49 bitrate=9888.5kbits/s speed=58.3x    frame=468154 fps=3478 q=-1.0 size= 9471744kB time=02:10:45.68 bitrate=9889.8kbits/s speed=58.3x    frame=469936 fps=3478 q=-1.0 size= 9508608kB time=02:11:15.35 bitrate=9890.9kbits/s speed=58.3x    frame=471649 fps=3478 q=-1.0 size= 9544192kB time=02:11:43.90 bitrate=9892.1kbits/s speed=58.3x    frame=473273 fps=3477 q=-1.0 size= 9577984kB time=02:12:10.91 bitrate=9893.3kbits/s speed=58.3x    frame=474975 fps=3477 q=-1.0 size= 9613312kB time=02:12:39.28 bitrate=9894.4kbits/s speed=58.3x    frame=476753 fps=3477 q=-1.0 size= 9650176kB time=02:13:08.89 bitrate=9895.5kbits/s speed=58.3x    frame=478535 fps=3477 q=-1.0 size= 9687296kB time=02:13:38.57 bitrate=9896.8kbits/s speed=58.3x    frame=480355 fps=3478 q=-1.0 size= 9725184kB time=02:14:08.87 bitrate=9898.1kbits/s speed=58.3x    frame=482021 fps=3477 q=-1.0 size= 9759744kB time=02:14:36.64 bitrate=9899.1kbits/s speed=58.3x    frame=483777 fps=3477 q=-1.0 size= 9796096kB time=02:15:05.89 bitrate=9900.2kbits/s speed=58.3x    frame=485537 fps=3478 q=-1.0 size= 9832960kB time=02:15:35.21 bitrate=9901.6kbits/s speed=58.3x    frame=487180 fps=3477 q=-1.0 size= 9867008kB time=02:16:02.53 bitrate=9902.6kbits/s speed=58.3x    frame=488867 fps=3476 q=-1.0 size= 9901824kB time=02:16:30.66 bitrate=9903.4kbits/s speed=58.2x    frame=490590 fps=3476 q=-1.0 size= 9937664kB time=02:16:59.34 bitrate=9904.6kbits/s speed=58.2x    frame=492181 fps=3475 q=-1.0 size= 9970944kB time=02:17:25.82 bitrate=9905.9kbits/s speed=58.2x    frame=493817 fps=3475 q=-1.0 size=10004736kB time=02:17:53.07 bitrate=9906.7kbits/s speed=58.2x    frame=495543 fps=3475 q=-1.0 size=10040832kB time=02:18:21.86 bitrate=9908.0kbits/s speed=58.2x    frame=497127 fps=3473 q=-1.0 size=10073600kB time=02:18:48.22 bitrate=9908.8kbits/s speed=58.2x    frame=498940 fps=3474 q=-1.0 size=10109952kB time=02:19:18.44 bitrate=9908.6kbits/s speed=58.2x    frame=500964 fps=3476 q=-1.0 size=10146816kB time=02:19:52.14 bitrate=9904.8kbits/s speed=58.2x    frame=502494 fps=3474 q=-1.0 size=10178560kB time=02:20:17.63 bitrate=9905.7kbits/s speed=58.2x    frame=504699 fps=3478 q=-1.0 size=10214144kB time=02:20:54.39 bitrate=9897.1kbits/s speed=58.3x    frame=506474 fps=3478 q=-1.0 size=10250752kB time=02:21:23.96 bitrate=9898.0kbits/s speed=58.3x    frame=508172 fps=3478 q=-1.0 size=10286336kB time=02:21:52.23 bitrate=9899.4kbits/s speed=58.3x    frame=509969 fps=3478 q=-1.0 size=10323456kB time=02:22:22.18 bitrate=9900.3kbits/s speed=58.3x    frame=511616 fps=3477 q=-1.0 size=10357504kB time=02:22:49.60 bitrate=9901.1kbits/s speed=58.2x    frame=513397 fps=3478 q=-1.0 size=10394624kB time=02:23:19.24 bitrate=9902.4kbits/s speed=58.2x    frame=515153 fps=3478 q=-1.0 size=10430976kB time=02:23:48.52 bitrate=9903.3kbits/s speed=58.3x    frame=516661 fps=3476 q=-1.0 size=10462464kB time=02:24:13.60 bitrate=9904.4kbits/s speed=58.2x    frame=518254 fps=3475 q=-1.0 size=10495488kB time=02:24:40.16 bitrate=9905.2kbits/s speed=58.2x    frame=519859 fps=3474 q=-1.0 size=10529024kB time=02:25:06.90 bitrate=9906.4kbits/s speed=58.2x    frame=521571 fps=3474 q=-1.0 size=10564352kB time=02:25:35.41 bitrate=9907.2kbits/s speed=58.2x    frame=523326 fps=3474 q=-1.0 size=10600960kB time=02:26:04.62 bitrate=9908.4kbits/s speed=58.2x    frame=524905 fps=3473 q=-1.0 size=10633728kB time=02:26:30.96 bitrate=9909.2kbits/s speed=58.2x    frame=526675 fps=3473 q=-1.0 size=10670592kB time=02:27:00.46 bitrate=9910.3kbits/s speed=58.2x    frame=528614 fps=3475 q=-1.0 size=10704896kB time=02:27:32.73 bitrate=9905.9kbits/s speed=58.2x    frame=530494 fps=3476 q=-1.0 size=10736640kB time=02:28:04.05 bitrate=9900.3kbits/s speed=58.2x    frame=532246 fps=3476 q=-1.0 size=10772992kB time=02:28:33.21 bitrate=9901.3kbits/s speed=58.2x    frame=533874 fps=3475 q=-1.0 size=10806528kB time=02:29:00.35 bitrate=9902.0kbits/s speed=58.2x    frame=535634 fps=3475 q=-1.0 size=10843136kB time=02:29:29.66 bitrate=9903.0kbits/s speed=58.2x    frame=537342 fps=3475 q=-1.0 size=10878720kB time=02:29:58.10 bitrate=9904.1kbits/s speed=58.2x    frame=539026 fps=3475 q=-1.0 size=10913792kB time=02:30:26.18 bitrate=9905.2kbits/s speed=58.2x    frame=540787 fps=3475 q=-1.0 size=10950400kB time=02:30:55.53 bitrate=9906.2kbits/s speed=58.2x    frame=542577 fps=3475 q=-1.0 size=10987520kB time=02:31:25.34 bitrate=9907.1kbits/s speed=58.2x    frame=544110 fps=3474 q=-1.0 size=11019520kB time=02:31:50.89 bitrate=9908.1kbits/s speed=58.2x    frame=545886 fps=3474 q=-1.0 size=11056384kB time=02:32:20.46 bitrate=9909.1kbits/s speed=58.2x    frame=547525 fps=3473 q=-1.0 size=11090432kB time=02:32:47.78 bitrate=9910.0kbits/s speed=58.2x    frame=549183 fps=3473 q=-1.0 size=11124992kB time=02:33:15.39 bitrate=9911.0kbits/s speed=58.1x    frame=550930 fps=3473 q=-1.0 size=11161088kB time=02:33:44.49 bitrate=9911.8kbits/s speed=58.1x    frame=552529 fps=3472 q=-1.0 size=11194368kB time=02:34:11.09 bitrate=9912.8kbits/s speed=58.1x    frame=554184 fps=3472 q=-1.0 size=11228672kB time=02:34:38.68 bitrate=9913.6kbits/s speed=58.1x    frame=555984 fps=3472 q=-1.0 size=11266048kB time=02:35:08.64 bitrate=9914.6kbits/s speed=58.1x    frame=557594 fps=3471 q=-1.0 size=11299584kB time=02:35:35.45 bitrate=9915.6kbits/s speed=58.1x    frame=559418 fps=3472 q=-1.0 size=11337472kB time=02:36:05.83 bitrate=9916.5kbits/s speed=58.1x    frame=561235 fps=3472 q=-1.0 size=11373824kB time=02:36:36.13 bitrate=9916.2kbits/s speed=58.1x    frame=563186 fps=3473 q=-1.0 size=11410176kB time=02:37:08.62 bitrate=9913.7kbits/s speed=58.2x    frame=565221 fps=3475 q=-1.0 size=11447040kB time=02:37:42.51 bitrate=9910.1kbits/s speed=58.2x    frame=567280 fps=3477 q=-1.0 size=11483392kB time=02:38:16.78 bitrate=9905.7kbits/s speed=58.2x    frame=568840 fps=3476 q=-1.0 size=11515904kB time=02:38:42.79 bitrate=9906.6kbits/s speed=58.2x    frame=570560 fps=3476 q=-1.0 size=11551488kB time=02:39:11.43 bitrate=9907.4kbits/s speed=58.2x    frame=572321 fps=3476 q=-1.0 size=11588352kB time=02:39:40.78 bitrate=9908.6kbits/s speed=58.2x    frame=573914 fps=3475 q=-1.0 size=11621376kB time=02:40:07.30 bitrate=9909.4kbits/s speed=58.2x    frame=575648 fps=3475 q=-1.0 size=11657472kB time=02:40:36.18 bitrate=9910.4kbits/s speed=58.2x    frame=577322 fps=3475 q=-1.0 size=11692032kB time=02:41:04.05 bitrate=9911.1kbits/s speed=58.2x    frame=578892 fps=3474 q=-1.0 size=11724800kB time=02:41:30.17 bitrate=9912.1kbits/s speed=58.1x    frame=580593 fps=3474 q=-1.0 size=11760128kB time=02:41:58.50 bitrate=9912.9kbits/s speed=58.1x    frame=582302 fps=3473 q=-1.0 size=11795456kB time=02:42:26.96 bitrate=9913.7kbits/s speed=58.1x    frame=583937 fps=3473 q=-1.0 size=11829760kB time=02:42:54.23 bitrate=9914.8kbits/s speed=58.1x    frame=585692 fps=3473 q=-1.0 size=11866112kB time=02:43:23.46 bitrate=9915.6kbits/s speed=58.1x    frame=587561 fps=3474 q=-1.0 size=11899904kB time=02:43:54.58 bitrate=9912.4kbits/s speed=58.1x    frame=589349 fps=3474 q=-1.0 size=11937024kB time=02:44:24.36 bitrate=9913.3kbits/s speed=58.1x    frame=591580 fps=3477 q=-1.0 size=11973632kB time=02:45:01.51 bitrate=9906.4kbits/s speed=58.2x    frame=593320 fps=3477 q=-1.0 size=12009728kB time=02:45:30.46 bitrate=9907.3kbits/s speed=58.2x    frame=595175 fps=3478 q=-1.0 size=12047872kB time=02:46:01.36 bitrate=9907.9kbits/s speed=58.2x    frame=596889 fps=3477 q=-1.0 size=12083456kB time=02:46:29.94 bitrate=9908.7kbits/s speed=58.2x    frame=598439 fps=3476 q=-1.0 size=12115712kB time=02:46:55.76 bitrate=9909.6kbits/s speed=58.2x    frame=600224 fps=3477 q=-1.0 size=12152832kB time=02:47:25.47 bitrate=9910.5kbits/s speed=58.2x    frame=601827 fps=3476 q=-1.0 size=12186112kB time=02:47:52.14 bitrate=9911.4kbits/s speed=58.2x    frame=603521 fps=3476 q=-1.0 size=12221440kB time=02:48:20.37 bitrate=9912.3kbits/s speed=58.2x    frame=605252 fps=3475 q=-1.0 size=12257536kB time=02:48:49.18 bitrate=9913.3kbits/s speed=58.2x    frame=606835 fps=3475 q=-1.0 size=12290304kB time=02:49:15.56 bitrate=9914.0kbits/s speed=58.1x    frame=608621 fps=3475 q=-1.0 size=12327424kB time=02:49:45.27 bitrate=9914.9kbits/s speed=58.2x    frame=610847 fps=3478 q=-1.0 size=12365312kB time=02:50:22.34 bitrate=9909.3kbits/s speed=58.2x    frame=612521 fps=3477 q=-1.0 size=12400128kB time=02:50:50.24 bitrate=9910.2kbits/s speed=58.2x    frame=614614 fps=3479 q=-1.0 size=12437248kB time=02:51:25.11 bitrate=9906.2kbits/s speed=58.2x    frame=616392 fps=3479 q=-1.0 size=12474112kB time=02:51:54.73 bitrate=9907.0kbits/s speed=58.2x    frame=617915 fps=3478 q=-1.0 size=12505856kB time=02:52:20.11 bitrate=9907.8kbits/s speed=58.2x    frame=619637 fps=3478 q=-1.0 size=12541696kB time=02:52:48.78 bitrate=9908.7kbits/s speed=58.2x    frame=621297 fps=3478 q=-1.0 size=12576256kB time=02:53:16.44 bitrate=9909.6kbits/s speed=58.2x    frame=622902 fps=3477 q=-1.0 size=12609280kB time=02:53:43.16 bitrate=9910.2kbits/s speed=58.2x    frame=624612 fps=3477 q=-1.0 size=12644864kB time=02:54:11.68 bitrate=9911.0kbits/s speed=58.2x    frame=626272 fps=3476 q=-1.0 size=12679424kB time=02:54:39.32 bitrate=9911.9kbits/s speed=58.2x    frame=627989 fps=3476 q=-1.0 size=12715008kB time=02:55:07.90 bitrate=9912.7kbits/s speed=58.2x    frame=629724 fps=3476 q=-1.0 size=12751360kB time=02:55:36.82 bitrate=9913.7kbits/s speed=58.2x    frame=631365 fps=3476 q=-1.0 size=12785408kB time=02:56:04.15 bitrate=9914.5kbits/s speed=58.2x    frame=632981 fps=3475 q=-1.0 size=12819200kB time=02:56:31.01 bitrate=9915.5kbits/s speed=58.1x    frame=634760 fps=3475 q=-1.0 size=12856064kB time=02:57:00.63 bitrate=9916.3kbits/s speed=58.1x    frame=636456 fps=3475 q=-1.0 size=12891136kB time=02:57:28.89 bitrate=9916.9kbits/s speed=58.1x    frame=638198 fps=3475 q=-1.0 size=12927488kB time=02:57:57.90 bitrate=9917.9kbits/s speed=58.1x    frame=640345 fps=3477 q=-1.0 size=12965632kB time=02:58:33.66 bitrate=9913.9kbits/s speed=58.2x    frame=642430 fps=3479 q=-1.0 size=13000192kB time=02:59:08.39 bitrate=9908.2kbits/s speed=58.2x    frame=644177 fps=3479 q=-1.0 size=13036544kB time=02:59:37.52 bitrate=9909.1kbits/s speed=58.2x    frame=645906 fps=3479 q=-1.0 size=13072384kB time=03:00:06.31 bitrate=9909.9kbits/s speed=58.2x    frame=647723 fps=3479 q=-1.0 size=13110016kB time=03:00:36.56 bitrate=9910.6kbits/s speed=58.2x    frame=649433 fps=3479 q=-1.0 size=13145856kB time=03:01:05.00 bitrate=9911.7kbits/s speed=58.2x    frame=651054 fps=3479 q=-1.0 size=13179392kB time=03:01:32.02 bitrate=9912.4kbits/s speed=58.2x    frame=652860 fps=3479 q=-1.0 size=13216768kB time=03:02:02.11 bitrate=9913.1kbits/s speed=58.2x    frame=654476 fps=3478 q=-1.0 size=13250560kB time=03:02:29.00 bitrate=9914.0kbits/s speed=58.2x    frame=656053 fps=3477 q=-1.0 size=13283072kB time=03:02:55.24 bitrate=9914.6kbits/s speed=58.2x    frame=657717 fps=3477 q=-1.0 size=13317888kB time=03:03:22.95 bitrate=9915.5kbits/s speed=58.2x    frame=659391 fps=3477 q=-1.0 size=13352704kB time=03:03:50.86 bitrate=9916.3kbits/s speed=58.2x    frame=661232 fps=3477 q=-1.0 size=13390848kB time=03:04:21.52 bitrate=9917.1kbits/s speed=58.2x    frame=662820 fps=3476 q=-1.0 size=13423872kB time=03:04:47.96 bitrate=9917.8kbits/s speed=58.2x    frame=664433 fps=3476 q=-1.0 size=13457664kB time=03:05:14.83 bitrate=9918.7kbits/s speed=58.1x    frame=666206 fps=3476 q=-1.0 size=13494272kB time=03:05:44.35 bitrate=9919.4kbits/s speed=58.1x    frame=667925 fps=3476 q=-1.0 size=13529856kB time=03:06:12.98 bitrate=9920.1kbits/s speed=58.1x    frame=669659 fps=3476 q=-1.0 size=13565952kB time=03:06:41.87 bitrate=9920.9kbits/s speed=58.1x    frame=671424 fps=3476 q=-1.0 size=13602560kB time=03:07:11.26 bitrate=9921.6kbits/s speed=58.1x    frame=673193 fps=3476 q=-1.0 size=13639424kB time=03:07:40.73 bitrate=9922.5kbits/s speed=58.1x    frame=674717 fps=3475 q=-1.0 size=13670912kB time=03:08:06.11 bitrate=9923.0kbits/s speed=58.1x    frame=676617 fps=3476 q=-1.0 size=13709056kB time=03:08:37.77 bitrate=9922.9kbits/s speed=58.1x    frame=678670 fps=3477 q=-1.0 size=13746688kB time=03:09:11.95 bitrate=9920.1kbits/s speed=58.2x    frame=680255 fps=3477 q=-1.0 size=13779456kB time=03:09:38.32 bitrate=9920.7kbits/s speed=58.2x    frame=682524 fps=3479 q=-1.0 size=13817856kB time=03:10:16.15 bitrate=9915.4kbits/s speed=58.2x    frame=684252 fps=3479 q=-1.0 size=13853952kB time=03:10:44.92 bitrate=9916.3kbits/s speed=58.2x    frame=685932 fps=3479 q=-1.0 size=13888768kB time=03:11:12.87 bitrate=9917.0kbits/s speed=58.2x    frame=687707 fps=3479 q=-1.0 size=13925632kB time=03:11:42.43 bitrate=9917.8kbits/s speed=58.2x    frame=689454 fps=3479 q=-1.0 size=13961728kB time=03:12:11.52 bitrate=9918.4kbits/s speed=58.2x    frame=691258 fps=3479 q=-1.0 size=13995008kB time=03:12:41.55 bitrate=9916.2kbits/s speed=58.2x    frame=692896 fps=3479 q=-1.0 size=14028544kB time=03:13:08.85 bitrate=9916.6kbits/s speed=58.2x    frame=695011 fps=3481 q=-1.0 size=14064384kB time=03:13:44.06 bitrate=9911.8kbits/s speed=58.2x    frame=696752 fps=3481 q=-1.0 size=14100736kB time=03:14:13.04 bitrate=9912.7kbits/s speed=58.2x    frame=698286 fps=3480 q=-1.0 size=14132480kB time=03:14:38.63 bitrate=9913.3kbits/s speed=58.2x    frame=699964 fps=3479 q=-1.0 size=14167552kB time=03:15:06.57 bitrate=9914.1kbits/s speed=58.2x    frame=701717 fps=3480 q=-1.0 size=14203904kB time=03:15:35.74 bitrate=9914.9kbits/s speed=58.2x    frame=703449 fps=3479 q=-1.0 size=14239744kB time=03:16:04.61 bitrate=9915.5kbits/s speed=58.2x    frame=705219 fps=3480 q=-1.0 size=14276608kB time=03:16:34.10 bitrate=9916.3kbits/s speed=58.2x    frame=706805 fps=3479 q=-1.0 size=14309632kB time=03:17:00.50 bitrate=9917.0kbits/s speed=58.2x    frame=708584 fps=3479 q=-1.0 size=14346752kB time=03:17:30.13 bitrate=9917.9kbits/s speed=58.2x    frame=710353 fps=3479 q=-1.0 size=14383360kB time=03:17:59.58 bitrate=9918.6kbits/s speed=58.2x    frame=711904 fps=3478 q=-1.0 size=14415616kB time=03:18:25.42 bitrate=9919.2kbits/s speed=58.2x    frame=713572 fps=3478 q=-1.0 size=14450176kB time=03:18:53.21 bitrate=9919.9kbits/s speed=58.2x    frame=715217 fps=3477 q=-1.0 size=14484480kB time=03:19:20.61 bitrate=9920.6kbits/s speed=58.2x    frame=717000 fps=3478 q=-1.0 size=14521600kB time=03:19:50.33 bitrate=9921.4kbits/s speed=58.2x    frame=718771 fps=3478 q=-1.0 size=14558464kB time=03:20:19.85 bitrate=9922.2kbits/s speed=58.2x    frame=720513 fps=3478 q=-1.0 size=14594304kB time=03:20:48.87 bitrate=9922.6kbits/s speed=58.2x    frame=722257 fps=3478 q=-1.0 size=14630912kB time=03:21:17.91 bitrate=9923.6kbits/s speed=58.2x    frame=724036 fps=3478 q=-1.0 size=14667776kB time=03:21:47.54 bitrate=9924.3kbits/s speed=58.2x    frame=725704 fps=3478 q=-1.0 size=14702336kB time=03:22:15.34 bitrate=9924.9kbits/s speed=58.2x    frame=727469 fps=3478 q=-1.0 size=14737920kB time=03:22:44.75 bitrate=9924.8kbits/s speed=58.2x    frame=729402 fps=3479 q=-1.0 size=14772992kB time=03:23:16.92 bitrate=9922.2kbits/s speed=58.2x    frame=731068 fps=3478 q=-1.0 size=14807296kB time=03:23:44.71 bitrate=9922.6kbits/s speed=58.2x    frame=733096 fps=3480 q=-1.0 size=14844416kB time=03:24:18.48 bitrate=9920.1kbits/s speed=58.2x    frame=734861 fps=3480 q=-1.0 size=14881024kB time=03:24:47.88 bitrate=9920.8kbits/s speed=58.2x    frame=736484 fps=3479 q=-1.0 size=14914560kB time=03:25:14.92 bitrate=9921.3kbits/s speed=58.2x    frame=738206 fps=3479 q=-1.0 size=14950656kB time=03:25:43.57 bitrate=9922.2kbits/s speed=58.2x    frame=740014 fps=3479 q=-1.0 size=14988032kB time=03:26:13.72 bitrate=9922.8kbits/s speed=58.2x    frame=741537 fps=3478 q=-1.0 size=15019776kB time=03:26:39.10 bitrate=9923.5kbits/s speed=58.2x    frame=743381 fps=3479 q=-1.0 size=15058176kB time=03:27:09.77 bitrate=9924.3kbits/s speed=58.2x    frame=745054 fps=3479 q=-1.0 size=15092992kB time=03:27:37.65 bitrate=9925.0kbits/s speed=58.2x    frame=746892 fps=3479 q=-1.0 size=15131136kB time=03:28:08.27 bitrate=9925.7kbits/s speed=58.2x    frame=748699 fps=3479 q=-1.0 size=15168768kB time=03:28:38.39 bitrate=9926.4kbits/s speed=58.2x    frame=750431 fps=3479 q=-1.0 size=15204608kB time=03:29:07.22 bitrate=9927.0kbits/s speed=58.2x    frame=752142 fps=3479 q=-1.0 size=15239936kB time=03:29:35.75 bitrate=9927.5kbits/s speed=58.2x    frame=753945 fps=3479 q=-1.0 size=15277568kB time=03:30:05.76 bitrate=9928.3kbits/s speed=58.2x    frame=755616 fps=3479 q=-1.0 size=15312384kB time=03:30:33.62 bitrate=9929.0kbits/s speed=58.2x    frame=757356 fps=3479 q=-1.0 size=15348480kB time=03:31:02.59 bitrate=9929.6kbits/s speed=58.2x    frame=761160 fps=3489 q=-1.0 size=15384576kB time=03:32:05.98 bitrate=9903.4kbits/s speed=58.3x    frame=762844 fps=3488 q=-1.0 size=15419648kB time=03:32:34.05 bitrate=9904.1kbits/s speed=58.3x    frame=764567 fps=3488 q=-1.0 size=15455488kB time=03:33:02.76 bitrate=9904.8kbits/s speed=58.3x    frame=766380 fps=3489 q=-1.0 size=15493120kB time=03:33:32.96 bitrate=9905.6kbits/s speed=58.3x    frame=768231 fps=3489 q=-1.0 size=15531776kB time=03:34:03.77 bitrate=9906.5kbits/s speed=58.3x    frame=769799 fps=3488 q=-1.0 size=15564544kB time=03:34:29.90 bitrate=9907.2kbits/s speed=58.3x    frame=771724 fps=3489 q=-1.0 size=15604480kB time=03:35:01.96 bitrate=9907.9kbits/s speed=58.3x    frame=773546 fps=3489 q=-1.0 size=15642368kB time=03:35:32.33 bitrate=9908.7kbits/s speed=58.3x    frame=775354 fps=3490 q=-1.0 size=15680000kB time=03:36:02.41 bitrate=9909.5kbits/s speed=58.3x    frame=777180 fps=3490 q=-1.0 size=15718144kB time=03:36:32.86 bitrate=9910.3kbits/s speed=58.3x    frame=779094 fps=3491 q=-1.0 size=15757568kB time=03:37:04.74 bitrate=9910.8kbits/s speed=58.4x    frame=780745 fps=3490 q=-1.0 size=15792128kB time=03:37:32.24 bitrate=9911.6kbits/s speed=58.3x    frame=782568 fps=3491 q=-1.0 size=15830016kB time=03:38:02.60 bitrate=9912.4kbits/s speed=58.4x    frame=784333 fps=3491 q=-1.0 size=15866624kB time=03:38:31.97 bitrate=9913.0kbits/s speed=58.4x    frame=786194 fps=3491 q=-1.0 size=15905536kB time=03:39:02.96 bitrate=9913.9kbits/s speed=58.4x    frame=788039 fps=3492 q=-1.0 size=15943424kB time=03:39:33.67 bitrate=9914.4kbits/s speed=58.4x    frame=789874 fps=3492 q=-1.0 size=15981824kB time=03:40:04.26 bitrate=9915.2kbits/s speed=58.4x    frame=791600 fps=3492 q=-1.0 size=16017664kB time=03:40:32.96 bitrate=9915.9kbits/s speed=58.4x    frame=793466 fps=3492 q=-1.0 size=16056576kB time=03:41:04.02 bitrate=9916.7kbits/s speed=58.4x    frame=796942 fps=3500 q=-1.0 size=16091648kB time=03:42:01.97 bitrate=9895.1kbits/s speed=58.5x    frame=800414 fps=3508 q=-1.0 size=16123136kB time=03:42:59.77 bitrate=9871.7kbits/s speed=58.6x    frame=802823 fps=3510 q=-1.0 size=16159744kB time=03:43:39.89 bitrate=9864.5kbits/s speed=58.7x    frame=805024 fps=3512 q=-1.0 size=16196864kB time=03:44:16.58 bitrate=9860.2kbits/s speed=58.7x    frame=807033 fps=3513 q=-1.0 size=16232192kB time=03:44:50.02 bitrate=9857.2kbits/s speed=58.7x    frame=809077 fps=3515 q=-1.0 size=16269568kB time=03:45:24.07 bitrate=9855.0kbits/s speed=58.7x    frame=810829 fps=3515 q=-1.0 size=16305152kB time=03:45:53.26 bitrate=9855.3kbits/s speed=58.7x    frame=813769 fps=3520 q=-1.0 size=16341504kB time=03:46:42.27 bitrate=9841.7kbits/s speed=58.8x    frame=816748 fps=3525 q=-1.0 size=16380160kB time=03:47:31.86 bitrate=9829.2kbits/s speed=58.9x    frame=819596 fps=3530 q=-1.0 size=16414720kB time=03:48:19.31 bitrate=9815.8kbits/s speed=  59x    frame=822046 fps=3533 q=-1.0 size=16453632kB time=03:49:00.13 bitrate=9809.8kbits/s speed=  59x    frame=823836 fps=3533 q=-1.0 size=16490496kB time=03:49:29.99 bitrate=9810.5kbits/s speed=  59x    frame=825636 fps=3533 q=-1.0 size=16525824kB time=03:49:59.97 bitrate=9810.1kbits/s speed=  59x    frame=827847 fps=3535 q=-1.0 size=16561920kB time=03:50:36.79 bitrate=9805.4kbits/s speed=59.1x    frame=829804 fps=3535 q=-1.0 size=16595456kB time=03:51:09.39 bitrate=9802.2kbits/s speed=59.1x    frame=832282 fps=3538 q=-1.0 size=16632064kB time=03:51:50.68 bitrate=9794.6kbits/s speed=59.1x    frame=834322 fps=3540 q=-1.0 size=16668928kB time=03:52:24.69 bitrate=9792.4kbits/s speed=59.2x    frame=836654 fps=3542 q=-1.0 size=16702464kB time=03:53:03.56 bitrate=9784.8kbits/s speed=59.2x    frame=839264 fps=3546 q=-1.0 size=16741120kB time=03:53:47.05 bitrate=9777.1kbits/s speed=59.3x    frame=841463 fps=3547 q=-1.0 size=16776960kB time=03:54:23.68 bitrate=9772.5kbits/s speed=59.3x    frame=843783 fps=3550 q=-1.0 size=16815360kB time=03:55:02.31 bitrate=9768.0kbits/s speed=59.3x    frame=845852 fps=3551 q=-1.0 size=16852992kB time=03:55:36.81 bitrate=9766.0kbits/s speed=59.3x    frame=848094 fps=3553 q=-1.0 size=16887040kB time=03:56:14.14 bitrate=9759.9kbits/s speed=59.4x    frame=850006 fps=3553 q=-1.0 size=16924672kB time=03:56:46.02 bitrate=9759.7kbits/s speed=59.4x    frame=852241 fps=3555 q=-1.0 size=16959232kB time=03:57:23.26 bitrate=9754.1kbits/s speed=59.4x    frame=855132 fps=3560 q=-1.0 size=16991232kB time=03:58:11.44 bitrate=9739.5kbits/s speed=59.5x    frame=857674 fps=3563 q=-1.0 size=17027584kB time=03:58:53.79 bitrate=9731.5kbits/s speed=59.5x    frame=860464 fps=3567 q=-1.0 size=17064704kB time=03:59:40.23 bitrate=9721.3kbits/s speed=59.6x    frame=862346 fps=3568 q=-1.0 size=17098496kB time=04:00:11.61 bitrate=9719.3kbits/s speed=59.6x    frame=864046 fps=3567 q=-1.0 size=17131520kB time=04:00:39.94 bitrate=9719.0kbits/s speed=59.6x    frame=865904 fps=3567 q=-1.0 size=17167872kB time=04:01:10.87 bitrate=9718.8kbits/s speed=59.6x    frame=867968 fps=3569 q=-1.0 size=17206272kB time=04:01:45.26 bitrate=9717.4kbits/s speed=59.6x    frame=869825 fps=3569 q=-1.0 size=17240320kB time=04:02:16.20 bitrate=9715.9kbits/s speed=59.6x    frame=871825 fps=3570 q=-1.0 size=17277952kB time=04:02:49.51 bitrate=9714.9kbits/s speed=59.7x    frame=873850 fps=3571 q=-1.0 size=17316352kB time=04:03:23.23 bitrate=9714.0kbits/s speed=59.7x    frame=875893 fps=3572 q=-1.0 size=17354752kB time=04:03:57.25 bitrate=9712.9kbits/s speed=59.7x    frame=877957 fps=3573 q=-1.0 size=17393408kB time=04:04:31.65 bitrate=9711.7kbits/s speed=59.7x    frame=880497 fps=3576 q=-1.0 size=17431808kB time=04:05:13.96 bitrate=9705.2kbits/s speed=59.8x    frame=882650 fps=3577 q=-1.0 size=17471744kB time=04:05:49.82 bitrate=9703.7kbits/s speed=59.8x    frame=884739 fps=3579 q=-1.0 size=17511168kB time=04:06:24.61 bitrate=9702.8kbits/s speed=59.8x    frame=886793 fps=3580 q=-1.0 size=17549312kB time=04:06:58.86 bitrate=9701.4kbits/s speed=59.8x    frame=888703 fps=3580 q=-1.0 size=17585152kB time=04:07:30.69 bitrate=9700.4kbits/s speed=59.8x    frame=890751 fps=3581 q=-1.0 size=17623040kB time=04:08:04.81 bitrate=9699.0kbits/s speed=59.8x    frame=892640 fps=3582 q=-1.0 size=17659392kB time=04:08:36.26 bitrate=9698.5kbits/s speed=59.9x    frame=894476 fps=3582 q=-1.0 size=17694464kB time=04:09:06.82 bitrate=9697.9kbits/s speed=59.9x    frame=896483 fps=3583 q=-1.0 size=17733376kB time=04:09:40.26 bitrate=9697.5kbits/s speed=59.9x    frame=898401 fps=3583 q=-1.0 size=17769216kB time=04:10:12.25 bitrate=9696.4kbits/s speed=59.9x    frame=900016 fps=3582 q=-1.0 size=17801472kB time=04:10:39.11 bitrate=9696.7kbits/s speed=59.9x    frame=901996 fps=3583 q=-1.0 size=17838848kB time=04:11:12.11 bitrate=9695.8kbits/s speed=59.9x    frame=903769 fps=3583 q=-1.0 size=17873408kB time=04:11:41.63 bitrate=9695.6kbits/s speed=59.9x    frame=905861 fps=3584 q=-1.0 size=17911808kB time=04:12:16.52 bitrate=9694.0kbits/s speed=59.9x    frame=907839 fps=3585 q=-1.0 size=17949696kB time=04:12:49.43 bitrate=9693.4kbits/s speed=59.9x    frame=910645 fps=3589 q=-1.0 size=17984000kB time=04:13:36.20 bitrate=9682.1kbits/s speed=  60x    frame=913530 fps=3593 q=-1.0 size=18020352kB time=04:14:24.23 bitrate=9671.1kbits/s speed=  60x    frame=915945 fps=3596 q=-1.0 size=18057472kB time=04:15:04.49 bitrate=9665.6kbits/s speed=60.1x    frame=918175 fps=3597 q=-1.0 size=18091008kB time=04:15:41.64 bitrate=9660.1kbits/s speed=60.1x    frame=920680 fps=3600 q=-1.0 size=18129408kB time=04:16:23.37 bitrate=9654.3kbits/s speed=60.2x    frame=923232 fps=3603 q=-1.0 size=18166528kB time=04:17:05.90 bitrate=9647.4kbits/s speed=60.2x    frame=925530 fps=3605 q=-1.0 size=18202368kB time=04:17:44.18 bitrate=9642.5kbits/s speed=60.2x    frame=928292 fps=3609 q=-1.0 size=18239488kB time=04:18:30.20 bitrate=9633.5kbits/s speed=60.3x    frame=931574 fps=3615 q=-1.0 size=18277120kB time=04:19:24.88 bitrate=9619.5kbits/s speed=60.4x    frame=933421 fps=3615 q=-1.0 size=18311680kB time=04:19:55.64 bitrate=9618.7kbits/s speed=60.4x    frame=936442 fps=3619 q=-1.0 size=18350592kB time=04:20:45.96 bitrate=9608.1kbits/s speed=60.5x    frame=939239 fps=3623 q=-1.0 size=18388736kB time=04:21:32.51 bitrate=9599.5kbits/s speed=60.5x    frame=941672 fps=3626 q=-1.0 size=18428416kB time=04:22:13.03 bitrate=9595.5kbits/s speed=60.6x    frame=944159 fps=3628 q=-1.0 size=18467840kB time=04:22:54.47 bitrate=9590.7kbits/s speed=60.6x    frame=946618 fps=3631 q=-1.0 size=18507008kB time=04:23:35.45 bitrate=9586.2kbits/s speed=60.7x    frame=949557 fps=3635 q=-1.0 size=18545152kB time=04:24:24.40 bitrate=9576.3kbits/s speed=60.7x    frame=951549 fps=3636 q=-1.0 size=18583808kB time=04:24:57.58 bitrate=9576.2kbits/s speed=60.7x    frame=954486 fps=3640 q=-1.0 size=18620672kB time=04:25:46.53 bitrate=9565.7kbits/s speed=60.8x    frame=956656 fps=3641 q=-1.0 size=18659328kB time=04:26:22.67 bitrate=9563.9kbits/s speed=60.8x    frame=958785 fps=3642 q=-1.0 size=18698752kB time=04:26:58.15 bitrate=9562.9kbits/s speed=60.9x    frame=961066 fps=3644 q=-1.0 size=18735104kB time=04:27:36.15 bitrate=9558.8kbits/s speed=60.9x    frame=963340 fps=3646 q=-1.0 size=18774528kB time=04:28:14.01 bitrate=9556.4kbits/s speed=60.9x    frame=965220 fps=3646 q=-1.0 size=18812928kB time=04:28:45.34 bitrate=9557.3kbits/s speed=60.9x    frame=968666 fps=3652 q=-1.0 size=18847232kB time=04:29:42.71 bitrate=9540.8kbits/s speed=  61x    frame=971232 fps=3655 q=-1.0 size=18881536kB time=04:30:25.48 bitrate=9533.0kbits/s speed=61.1x    frame=973124 fps=3655 q=-1.0 size=18915840kB time=04:30:56.98 bitrate=9531.8kbits/s speed=61.1x    frame=975216 fps=3656 q=-1.0 size=18951424kB time=04:31:31.81 bitrate=9529.3kbits/s speed=61.1x    frame=978117 fps=3660 q=-1.0 size=18989312kB time=04:32:20.18 bitrate=9520.1kbits/s speed=61.1x    frame=980444 fps=3662 q=-1.0 size=19024896kB time=04:32:58.93 bitrate=9515.4kbits/s speed=61.2x    frame=982655 fps=3663 q=-1.0 size=19059712kB time=04:33:35.75 bitrate=9511.4kbits/s speed=61.2x    frame=984676 fps=3664 q=-1.0 size=19094528kB time=04:34:09.40 bitrate=9509.3kbits/s speed=61.2x    frame=986843 fps=3665 q=-1.0 size=19130880kB time=04:34:45.52 bitrate=9506.5kbits/s speed=61.2x    frame=988970 fps=3666 q=-1.0 size=19167744kB time=04:35:20.95 bitrate=9504.4kbits/s speed=61.2x    frame=990865 fps=3667 q=-1.0 size=19199744kB time=04:35:52.50 bitrate=9502.1kbits/s speed=61.3x    frame=993023 fps=3668 q=-1.0 size=19237376kB time=04:36:28.42 bitrate=9500.2kbits/s speed=61.3x    frame=995187 fps=3669 q=-1.0 size=19276032kB time=04:37:04.50 bitrate=9498.6kbits/s speed=61.3x    frame=997285 fps=3670 q=-1.0 size=19313152kB time=04:37:39.44 bitrate=9496.9kbits/s speed=61.3x    frame=999414 fps=3671 q=-1.0 size=19351296kB time=04:38:14.88 bitrate=9495.5kbits/s speed=61.3x    frame=1002240 fps=3675 q=-1.0 size=19385088kB time=04:39:01.95 bitrate=9485.3kbits/s speed=61.4x    frame=1004009 fps=3674 q=-1.0 size=19418368kB time=04:39:31.43 bitrate=9484.9kbits/s speed=61.4x    frame=1006088 fps=3675 q=-1.0 size=19457536kB time=04:40:06.04 bitrate=9484.5kbits/s speed=61.4x    frame=1008528 fps=3677 q=-1.0 size=19493120kB time=04:40:46.70 bitrate=9478.9kbits/s speed=61.4x    frame=1010956 fps=3680 q=-1.0 size=19530752kB time=04:41:27.15 bitrate=9474.4kbits/s speed=61.5x    frame=1012897 fps=3680 q=-1.0 size=19567104kB time=04:41:59.51 bitrate=9473.9kbits/s speed=61.5x    frame=1014858 fps=3680 q=-1.0 size=19603712kB time=04:42:32.18 bitrate=9473.3kbits/s speed=61.5x    frame=1017052 fps=3682 q=-1.0 size=19638784kB time=04:43:08.73 bitrate=9469.9kbits/s speed=61.5x    frame=1019135 fps=3683 q=-1.0 size=19675648kB time=04:43:43.42 bitrate=9468.3kbits/s speed=61.5x    frame=1021536 fps=3685 q=-1.0 size=19713792kB time=04:44:23.42 bitrate=9464.4kbits/s speed=61.5x    frame=1023843 fps=3686 q=-1.0 size=19752704kB time=04:45:01.82 bitrate=9461.8kbits/s speed=61.6x    frame=1025843 fps=3687 q=-1.0 size=19788288kB time=04:45:35.16 bitrate=9460.4kbits/s speed=61.6x    frame=1027877 fps=3687 q=-1.0 size=19825152kB time=04:46:09.04 bitrate=9459.3kbits/s speed=61.6x    frame=1030052 fps=3689 q=-1.0 size=19863040kB time=04:46:45.24 bitrate=9457.5kbits/s speed=61.6x    frame=1032704 fps=3692 q=-1.0 size=19897600kB time=04:47:29.41 bitrate=9449.7kbits/s speed=61.7x    frame=1034695 fps=3692 q=-1.0 size=19935744kB time=04:48:02.59 bitrate=9449.6kbits/s speed=61.7x    frame=1036708 fps=3693 q=-1.0 size=19973632kB time=04:48:36.11 bitrate=9449.2kbits/s speed=61.7x    frame=1038501 fps=3692 q=-1.0 size=20007168kB time=04:49:05.99 bitrate=9448.8kbits/s speed=61.7x    frame=1040501 fps=3693 q=-1.0 size=20044800kB time=04:49:39.27 bitrate=9448.4kbits/s speed=61.7x    frame=1042463 fps=3693 q=-1.0 size=20083200kB time=04:50:11.97 bitrate=9448.8kbits/s speed=61.7x    frame=1045970 fps=3699 q=-1.0 size=20115712kB time=04:51:10.42 bitrate=9432.4kbits/s speed=61.8x    frame=1048109 fps=3700 q=-1.0 size=20151040kB time=04:51:46.06 bitrate=9429.7kbits/s speed=61.8x    frame=1050122 fps=3701 q=-1.0 size=20185856kB time=04:52:19.60 bitrate=9427.9kbits/s speed=61.8x    frame=1052356 fps=3702 q=-1.0 size=20219136kB time=04:52:56.80 bitrate=9423.5kbits/s speed=61.8x    frame=1054426 fps=3703 q=-1.0 size=20255232kB time=04:53:31.30 bitrate=9421.8kbits/s speed=61.8x    frame=1056320 fps=3703 q=-1.0 size=20288000kB time=04:54:02.86 bitrate=9420.2kbits/s speed=61.8x    frame=1058151 fps=3703 q=-1.0 size=20321536kB time=04:54:33.33 bitrate=9419.5kbits/s speed=61.8x    frame=1060319 fps=3704 q=-1.0 size=20357376kB time=04:55:09.44 bitrate=9416.9kbits/s speed=61.9x    frame=1063039 fps=3707 q=-1.0 size=20390144kB time=04:55:54.78 bitrate=9407.9kbits/s speed=61.9x    frame=1064711 fps=3706 q=-1.0 size=20424960kB time=04:56:22.60 bitrate=9409.3kbits/s speed=61.9x    frame=1066490 fps=3706 q=-1.0 size=20461568kB time=04:56:52.25 bitrate=9410.4kbits/s speed=61.9x    frame=1068118 fps=3705 q=-1.0 size=20495104kB time=04:57:19.39 bitrate=9411.5kbits/s speed=61.9x    frame=1069929 fps=3705 q=-1.0 size=20532480kB time=04:57:49.56 bitrate=9412.8kbits/s speed=61.9x    frame=1071767 fps=3705 q=-1.0 size=20570880kB time=04:58:20.19 bitrate=9414.2kbits/s speed=61.9x    frame=1073461 fps=3705 q=-1.0 size=20604160kB time=04:58:48.37 bitrate=9414.6kbits/s speed=61.9x    frame=1077129 fps=3711 q=-1.0 size=20639744kB time=04:59:49.49 bitrate=9398.9kbits/s speed=  62x    frame=1081392 fps=3719 q=-1.0 size=20674816kB time=05:01:00.49 bitrate=9377.8kbits/s speed=62.1x    frame=1083350 fps=3720 q=-1.0 size=20708096kB time=05:01:33.13 bitrate=9376.0kbits/s speed=62.1x    frame=1085197 fps=3719 q=-1.0 size=20744448kB time=05:02:03.89 bitrate=9376.5kbits/s speed=62.1x    frame=1087049 fps=3719 q=-1.0 size=20781824kB time=05:02:34.78 bitrate=9377.4kbits/s speed=62.1x    frame=1089251 fps=3721 q=-1.0 size=20813824kB time=05:03:11.45 bitrate=9372.9kbits/s speed=62.1x    frame=1091103 fps=3721 q=-1.0 size=20850944kB time=05:03:42.31 bitrate=9373.7kbits/s speed=62.1x    frame=1093011 fps=3721 q=-1.0 size=20886016kB time=05:04:14.11 bitrate=9373.1kbits/s speed=62.1x    frame=1094659 fps=3720 q=-1.0 size=20919296kB time=05:04:41.57 bitrate=9374.0kbits/s speed=62.1x    frame=1096918 fps=3721 q=-1.0 size=20956672kB time=05:05:19.21 bitrate=9371.4kbits/s speed=62.1x    frame=1099265 fps=3723 q=-1.0 size=20987648kB time=05:05:58.33 bitrate=9365.3kbits/s speed=62.2x    frame=1101829 fps=3725 q=-1.0 size=21023488kB time=05:06:41.03 bitrate=9359.5kbits/s speed=62.2x    frame=1103747 fps=3726 q=-1.0 size=21059840kB time=05:07:12.97 bitrate=9359.4kbits/s speed=62.2x    frame=1106320 fps=3728 q=-1.0 size=21097472kB time=05:07:55.83 bitrate=9354.4kbits/s speed=62.3x    frame=1109790 fps=3733 q=-1.0 size=21129472kB time=05:08:53.64 bitrate=9339.4kbits/s speed=62.3x    frame=1112867 fps=3737 q=-1.0 size=21163264kB time=05:09:44.92 bitrate=9328.5kbits/s speed=62.4x    frame=1114758 fps=3737 q=-1.0 size=21200384kB time=05:10:16.42 bitrate=9329.0kbits/s speed=62.4x    frame=1117635 fps=3741 q=-1.0 size=21237504kB time=05:11:04.36 bitrate=9321.4kbits/s speed=62.5x    frame=1119300 fps=3740 q=-1.0 size=21271040kB time=05:11:32.11 bitrate=9322.2kbits/s speed=62.5x    frame=1121312 fps=3741 q=-1.0 size=21308160kB time=05:12:05.62 bitrate=9321.8kbits/s speed=62.5x    frame=1123272 fps=3741 q=-1.0 size=21345280kB time=05:12:38.26 bitrate=9321.8kbits/s speed=62.5x    frame=1125479 fps=3742 q=-1.0 size=21379072kB time=05:13:15.03 bitrate=9318.3kbits/s speed=62.5x    frame=1127635 fps=3743 q=-1.0 size=21414144kB time=05:13:50.95 bitrate=9315.8kbits/s speed=62.5x    frame=1129640 fps=3743 q=-1.0 size=21452032kB time=05:14:24.35 bitrate=9315.7kbits/s speed=62.5x    frame=1131446 fps=3743 q=-1.0 size=21484544kB time=05:14:54.43 bitrate=9315.0kbits/s speed=62.5x    frame=1133904 fps=3745 q=-1.0 size=21519872kB time=05:15:35.38 bitrate=9310.1kbits/s speed=62.5x    frame=1135635 fps=3745 q=-1.0 size=21553152kB time=05:16:04.22 bitrate=9310.3kbits/s speed=62.5x    frame=1137397 fps=3744 q=-1.0 size=21586432kB time=05:16:33.57 bitrate=9310.3kbits/s speed=62.5x    frame=1139368 fps=3745 q=-1.0 size=21622016kB time=05:17:06.40 bitrate=9309.6kbits/s speed=62.5x    frame=1141214 fps=3744 q=-1.0 size=21657088kB time=05:17:37.14 bitrate=9309.6kbits/s speed=62.5x    frame=1142801 fps=3744 q=-1.0 size=21689856kB time=05:18:03.57 bitrate=9310.8kbits/s speed=62.5x    frame=1144666 fps=3743 q=-1.0 size=21724160kB time=05:18:34.63 bitrate=9310.4kbits/s speed=62.5x    frame=1146718 fps=3744 q=-1.0 size=21760256kB time=05:19:08.80 bitrate=9309.2kbits/s speed=62.5x    frame=1148808 fps=3745 q=-1.0 size=21797376kB time=05:19:43.62 bitrate=9308.2kbits/s speed=62.5x    frame=1150807 fps=3745 q=-1.0 size=21835520kB time=05:20:16.94 bitrate=9308.3kbits/s speed=62.5x    frame=1152613 fps=3745 q=-1.0 size=21869312kB time=05:20:47.01 bitrate=9308.1kbits/s speed=62.5x    frame=1154404 fps=3745 q=-1.0 size=21906688kB time=05:21:16.84 bitrate=9309.6kbits/s speed=62.5x    frame=1156361 fps=3745 q=-1.0 size=21944064kB time=05:21:49.44 bitrate=9309.7kbits/s speed=62.5x    frame=1158198 fps=3745 q=-1.0 size=21978624kB time=05:22:20.03 bitrate=9309.6kbits/s speed=62.5x    frame=1160558 fps=3746 q=-1.0 size=22014464kB time=05:22:59.33 bitrate=9305.9kbits/s speed=62.6x    frame=1163767 fps=3751 q=-1.0 size=22052352kB time=05:23:52.76 bitrate=9296.3kbits/s speed=62.6x    frame=1166357 fps=3753 q=-1.0 size=22088448kB time=05:24:35.89 bitrate=9290.9kbits/s speed=62.7x    frame=1168973 fps=3755 q=-1.0 size=22126592kB time=05:25:19.45 bitrate=9286.2kbits/s speed=62.7x    frame=1172310 fps=3760 q=-1.0 size=22161920kB time=05:26:15.06 bitrate=9274.6kbits/s speed=62.8x    frame=1174231 fps=3760 q=-1.0 size=22198016kB time=05:26:47.06 bitrate=9274.5kbits/s speed=62.8x    frame=1176297 fps=3761 q=-1.0 size=22237184kB time=05:27:21.49 bitrate=9274.6kbits/s speed=62.8x    frame=1179289 fps=3764 q=-1.0 size=22274816kB time=05:28:11.31 bitrate=9266.8kbits/s speed=62.9x    frame=1181252 fps=3765 q=-1.0 size=22308864kB time=05:28:44.03 bitrate=9265.6kbits/s speed=62.9x    frame=1183565 fps=3766 q=-1.0 size=22347776kB time=05:29:22.55 bitrate=9263.6kbits/s speed=62.9x    frame=1186092 fps=3768 q=-1.0 size=22384128kB time=05:30:04.66 bitrate=9259.0kbits/s speed=62.9x    frame=1188004 fps=3768 q=-1.0 size=22420480kB time=05:30:36.49 bitrate=9259.1kbits/s speed=62.9x    frame=1190145 fps=3769 q=-1.0 size=22459136kB time=05:31:12.18 bitrate=9258.4kbits/s speed=62.9x    frame=1192062 fps=3769 q=-1.0 size=22496768kB time=05:31:44.08 bitrate=9259.1kbits/s speed=62.9x    frame=1194785 fps=3772 q=-1.0 size=22533888kB time=05:32:29.43 bitrate=9253.3kbits/s speed=  63x    frame=1196721 fps=3772 q=-1.0 size=22570496kB time=05:33:01.67 bitrate=9253.4kbits/s speed=  63x    frame=1199515 fps=3775 q=-1.0 size=22606848kB time=05:33:48.24 bitrate=9246.7kbits/s speed=  63x    frame=1201708 fps=3776 q=-1.0 size=22639104kB time=05:34:24.75 bitrate=9243.1kbits/s speed=  63x    frame=1203793 fps=3776 q=-1.0 size=22674432kB time=05:34:59.49 bitrate=9241.5kbits/s speed=63.1x    frame=1205613 fps=3776 q=-1.0 size=22712320kB time=05:35:29.81 bitrate=9243.0kbits/s speed=  63x    frame=1207431 fps=3776 q=-1.0 size=22747648kB time=05:36:00.08 bitrate=9243.4kbits/s speed=  63x    frame=1209269 fps=3776 q=-1.0 size=22785792kB time=05:36:30.69 bitrate=9244.9kbits/s speed=  63x    frame=1211244 fps=3776 q=-1.0 size=22824192kB time=05:37:03.62 bitrate=9245.4kbits/s speed=  63x    frame=1213022 fps=3776 q=-1.0 size=22860800kB time=05:37:33.23 bitrate=9246.7kbits/s speed=  63x    frame=1215840 fps=3778 q=-1.0 size=22894080kB time=05:38:20.19 bitrate=9238.7kbits/s speed=63.1x    frame=1217525 fps=3778 q=-1.0 size=22929152kB time=05:38:48.23 bitrate=9240.1kbits/s speed=63.1x    frame=1219424 fps=3778 q=-1.0 size=22965248kB time=05:39:19.90 bitrate=9240.3kbits/s speed=63.1x    frame=1222444 fps=3781 q=-1.0 size=23001344kB time=05:40:10.19 bitrate=9232.0kbits/s speed=63.1x    frame=1224557 fps=3782 q=-1.0 size=23041536kB time=05:40:45.43 bitrate=9232.2kbits/s speed=63.1x    frame=1226981 fps=3784 q=-1.0 size=23077376kB time=05:41:25.81 bitrate=9228.3kbits/s speed=63.2x    frame=1229942 fps=3787 q=-1.0 size=23111424kB time=05:42:15.11 bitrate=9219.8kbits/s speed=63.2x    frame=1232830 fps=3790 q=-1.0 size=23148544kB time=05:43:03.23 bitrate=9213.0kbits/s speed=63.3x    frame=1235317 fps=3792 q=-1.0 size=23182848kB time=05:43:44.65 bitrate=9208.1kbits/s speed=63.3x    frame=1238297 fps=3795 q=-1.0 size=23221504kB time=05:44:34.32 bitrate=9201.3kbits/s speed=63.4x    frame=1241270 fps=3798 q=-1.0 size=23259392kB time=05:45:23.82 bitrate=9194.3kbits/s speed=63.4x    frame=1243335 fps=3799 q=-1.0 size=23294976kB time=05:45:58.20 bitrate=9193.1kbits/s speed=63.4x    frame=1245910 fps=3801 q=-1.0 size=23334400kB time=05:46:41.09 bitrate=9189.7kbits/s speed=63.5x    frame=1247675 fps=3800 q=-1.0 size=23371008kB time=05:47:10.49 bitrate=9191.1kbits/s speed=63.5x    frame=1249479 fps=3800 q=-1.0 size=23406336kB time=05:47:40.52 bitrate=9191.7kbits/s speed=63.4x    frame=1251327 fps=3800 q=-1.0 size=23444992kB time=05:48:11.34 bitrate=9193.3kbits/s speed=63.4x    frame=1254215 fps=3803 q=-1.0 size=23479808kB time=05:48:59.43 bitrate=9185.9kbits/s speed=63.5x    frame=1256446 fps=3804 q=-1.0 size=23516672kB time=05:49:36.62 bitrate=9184.0kbits/s speed=63.5x    frame=1258696 fps=3805 q=-1.0 size=23551232kB time=05:50:14.11 bitrate=9181.1kbits/s speed=63.5x    frame=1260940 fps=3806 q=-1.0 size=23590144kB time=05:50:51.49 bitrate=9179.9kbits/s speed=63.5x    frame=1263431 fps=3808 q=-1.0 size=23627008kB time=05:51:32.97 bitrate=9176.2kbits/s speed=63.6x    frame=1265571 fps=3809 q=-1.0 size=23663616kB time=05:52:08.65 bitrate=9174.9kbits/s speed=63.6x    frame=1268959 fps=3813 q=-1.0 size=23701248kB time=05:53:05.10 bitrate=9165.0kbits/s speed=63.7x    frame=1271459 fps=3815 q=-1.0 size=23739648kB time=05:53:46.74 bitrate=9161.8kbits/s speed=63.7x    frame=1273247 fps=3814 q=-1.0 size=23773184kB time=05:54:16.53 bitrate=9161.9kbits/s speed=63.7x    frame=1276761 fps=3819 q=-1.0 size=23811072kB time=05:55:15.06 bitrate=9151.3kbits/s speed=63.8x    frame=1278642 fps=3819 q=-1.0 size=23850240kB time=05:55:46.41 bitrate=9152.9kbits/s speed=63.8x    frame=1280401 fps=3819 q=-1.0 size=23883520kB time=05:56:15.72 bitrate=9153.1kbits/s speed=63.8x    frame=1282638 fps=3820 q=-1.0 size=23922176kB time=05:56:53.00 bitrate=9151.9kbits/s speed=63.8x    frame=1284735 fps=3820 q=-1.0 size=23961344kB time=05:57:27.93 bitrate=9152.0kbits/s speed=63.8x    frame=1286860 fps=3821 q=-1.0 size=24000512kB time=05:58:03.31 bitrate=9151.9kbits/s speed=63.8x    frame=1288848 fps=3821 q=-1.0 size=24039936kB time=05:58:36.42 bitrate=9152.8kbits/s speed=63.8x    frame=1290495 fps=3820 q=-1.0 size=24073984kB time=05:59:03.88 bitrate=9154.1kbits/s speed=63.8x    frame=1294067 fps=3825 q=-1.0 size=24113152kB time=06:00:03.39 bitrate=9143.7kbits/s speed=63.9x    frame=1296758 fps=3827 q=-1.0 size=24151552kB time=06:00:48.22 bitrate=9139.3kbits/s speed=63.9x    frame=1298448 fps=3827 q=-1.0 size=24185344kB time=06:01:16.37 bitrate=9140.2kbits/s speed=63.9x    frame=1300298 fps=3827 q=-1.0 size=24221696kB time=06:01:47.20 bitrate=9140.9kbits/s speed=63.9x    frame=1302206 fps=3827 q=-1.0 size=24259328kB time=06:02:18.96 bitrate=9141.8kbits/s speed=63.9x    frame=1304412 fps=3827 q=-1.0 size=24295424kB time=06:02:55.75 bitrate=9139.9kbits/s speed=63.9x    frame=1307432 fps=3831 q=-1.0 size=24333056kB time=06:03:46.05 bitrate=9133.0kbits/s speed=63.9x    frame=1309168 fps=3830 q=-1.0 size=24369152kB time=06:04:14.95 bitrate=9134.4kbits/s speed=63.9x    frame=1312141 fps=3833 q=-1.0 size=24400896kB time=06:05:04.52 bitrate=9125.6kbits/s speed=  64x    frame=1316095 fps=3839 q=-1.0 size=24436224kB time=06:06:10.34 bitrate=9111.4kbits/s speed=64.1x    frame=1318057 fps=3839 q=-1.0 size=24470784kB time=06:06:43.04 bitrate=9110.8kbits/s speed=64.1x    frame=1320383 fps=3840 q=-1.0 size=24504576kB time=06:07:21.79 bitrate=9107.3kbits/s speed=64.1x    frame=1322115 fps=3840 q=-1.0 size=24536832kB time=06:07:50.63 bitrate=9107.4kbits/s speed=64.1x    frame=1323803 fps=3839 q=-1.0 size=24569344kB time=06:08:18.76 bitrate=9107.8kbits/s speed=64.1x    frame=1325558 fps=3839 q=-1.0 size=24601856kB time=06:08:47.98 bitrate=9107.9kbits/s speed=64.1x    frame=1327538 fps=3839 q=-1.0 size=24634112kB time=06:09:20.97 bitrate=9106.2kbits/s speed=64.1x    frame=1329557 fps=3839 q=-1.0 size=24666112kB time=06:09:54.61 bitrate=9104.2kbits/s speed=64.1x    frame=1331221 fps=3838 q=-1.0 size=24698112kB time=06:10:22.32 bitrate=9104.7kbits/s speed=64.1x    frame=1332766 fps=3837 q=-1.0 size=24730368kB time=06:10:48.06 bitrate=9106.0kbits/s speed=64.1x    frame=1334311 fps=3836 q=-1.0 size=24761600kB time=06:11:13.81 bitrate=9107.0kbits/s speed=  64x    frame=1336100 fps=3836 q=-1.0 size=24794368kB time=06:11:43.61 bitrate=9106.8kbits/s speed=  64x    frame=1338102 fps=3836 q=-1.0 size=24827648kB time=06:12:16.96 bitrate=9105.4kbits/s speed=  64x    frame=1340127 fps=3836 q=-1.0 size=24859904kB time=06:12:50.69 bitrate=9103.5kbits/s speed=  64x    frame=1341951 fps=3836 q=-1.0 size=24892416kB time=06:13:21.08 bitrate=9103.1kbits/s speed=  64x    frame=1343687 fps=3836 q=-1.0 size=24925440kB time=06:13:49.96 bitrate=9103.4kbits/s speed=  64x    frame=1345306 fps=3835 q=-1.0 size=24957952kB time=06:14:16.94 bitrate=9104.3kbits/s speed=  64x    frame=1347185 fps=3835 q=-1.0 size=24992512kB time=06:14:48.21 bitrate=9104.3kbits/s speed=  64x    frame=1349593 fps=3836 q=-1.0 size=25024256kB time=06:15:28.32 bitrate=9099.6kbits/s speed=  64x    frame=1352003 fps=3837 q=-1.0 size=25059072kB time=06:16:08.48 bitrate=9096.0kbits/s speed=64.1x    frame=1353961 fps=3838 q=-1.0 size=25094400kB time=06:16:41.12 bitrate=9095.7kbits/s speed=64.1x    frame=1356001 fps=3838 q=-1.0 size=25129728kB time=06:17:15.10 bitrate=9094.8kbits/s speed=64.1x    frame=1358939 fps=3841 q=-1.0 size=25162240kB time=06:18:04.03 bitrate=9087.0kbits/s speed=64.1x    frame=1361843 fps=3844 q=-1.0 size=25196288kB time=06:18:52.41 bitrate=9079.9kbits/s speed=64.2x    frame=1363803 fps=3844 q=-1.0 size=25230080kB time=06:19:25.05 bitrate=9079.0kbits/s speed=64.2x    frame=1365573 fps=3843 q=-1.0 size=25264128kB time=06:19:54.55 bitrate=9079.5kbits/s speed=64.2x    frame=1367313 fps=3843 q=-1.0 size=25297920kB time=06:20:23.53 bitrate=9080.1kbits/s speed=64.1x    frame=1369809 fps=3844 q=-1.0 size=25333248kB time=06:21:05.10 bitrate=9076.3kbits/s speed=64.2x    frame=1371693 fps=3844 q=-1.0 size=25366272kB time=06:21:36.48 bitrate=9075.7kbits/s speed=64.2x    frame=1374081 fps=3845 q=-1.0 size=25403392kB time=06:22:16.26 bitrate=9073.2kbits/s speed=64.2x    frame=1375780 fps=3845 q=-1.0 size=25438464kB time=06:22:44.56 bitrate=9074.5kbits/s speed=64.2x    frame=1377541 fps=3844 q=-1.0 size=25474816kB time=06:23:13.91 bitrate=9075.9kbits/s speed=64.2x    frame=1379524 fps=3845 q=-1.0 size=25512192kB time=06:23:46.95 bitrate=9076.1kbits/s speed=64.2x    frame=1381173 fps=3844 q=-1.0 size=25544448kB time=06:24:14.41 bitrate=9076.8kbits/s speed=64.2x    frame=1383958 fps=3846 q=-1.0 size=25580800kB time=06:25:00.83 bitrate=9071.4kbits/s speed=64.2x    frame=1385681 fps=3846 q=-1.0 size=25616640kB time=06:25:29.52 bitrate=9072.9kbits/s speed=64.2x    frame=1387287 fps=3845 q=-1.0 size=25649920kB time=06:25:56.28 bitrate=9074.2kbits/s speed=64.2x    frame=1389109 fps=3844 q=-1.0 size=25686784kB time=06:26:26.63 bitrate=9075.3kbits/s speed=64.2x    frame=1390976 fps=3844 q=-1.0 size=25723904kB time=06:26:57.73 bitrate=9076.3kbits/s speed=64.2x    frame=1392579 fps=3843 q=-1.0 size=25756416kB time=06:27:24.42 bitrate=9077.3kbits/s speed=64.2x    frame=1394419 fps=3843 q=-1.0 size=25793536kB time=06:27:55.08 bitrate=9078.4kbits/s speed=64.1x    frame=1396178 fps=3843 q=-1.0 size=25830144kB time=06:28:24.37 bitrate=9079.9kbits/s speed=64.1x    frame=1397713 fps=3842 q=-1.0 size=25861376kB time=06:28:49.94 bitrate=9080.9kbits/s speed=64.1x    frame=1399873 fps=3842 q=-1.0 size=25899264kB time=06:29:25.94 bitrate=9080.2kbits/s speed=64.1x    frame=1401745 fps=3842 q=-1.0 size=25935616kB time=06:29:57.12 bitrate=9080.8kbits/s speed=64.1x    frame=1403565 fps=3842 q=-1.0 size=25973504kB time=06:30:27.45 bitrate=9082.3kbits/s speed=64.1x    frame=1405307 fps=3841 q=-1.0 size=26009600kB time=06:30:56.48 bitrate=9083.7kbits/s speed=64.1x    frame=1407057 fps=3841 q=-1.0 size=26045696kB time=06:31:25.62 bitrate=9085.0kbits/s speed=64.1x    frame=1410143 fps=3844 q=-1.0 size=26081024kB time=06:32:17.03 bitrate=9077.4kbits/s speed=64.2x    frame=1412366 fps=3845 q=-1.0 size=26114304kB time=06:32:54.08 bitrate=9074.7kbits/s speed=64.2x    frame=1415056 fps=3847 q=-1.0 size=26152192kB time=06:33:38.88 bitrate=9070.7kbits/s speed=64.2x    frame=1417430 fps=3848 q=-1.0 size=26184448kB time=06:34:18.44 bitrate=9066.7kbits/s speed=64.2x    frame=1419955 fps=3850 q=-1.0 size=26217472kB time=06:35:00.52 bitrate=9062.0kbits/s speed=64.3x    frame=1422317 fps=3851 q=-1.0 size=26254080kB time=06:35:39.84 bitrate=9059.6kbits/s speed=64.3x    frame=1424400 fps=3851 q=-1.0 size=26293248kB time=06:36:14.54 bitrate=9059.9kbits/s speed=64.3x    frame=1426518 fps=3852 q=-1.0 size=26323456kB time=06:36:49.84 bitrate=9056.8kbits/s speed=64.3x    frame=1428195 fps=3851 q=-1.0 size=26358272kB time=06:37:17.75 bitrate=9058.2kbits/s speed=64.3x    frame=1430158 fps=3851 q=-1.0 size=26395648kB time=06:37:50.49 bitrate=9058.6kbits/s speed=64.3x    frame=1432161 fps=3852 q=-1.0 size=26427904kB time=06:38:23.86 bitrate=9057.0kbits/s speed=64.3x    frame=1434064 fps=3851 q=-1.0 size=26466048kB time=06:38:55.54 bitrate=9058.1kbits/s speed=64.3x    frame=1436017 fps=3852 q=-1.0 size=26500608kB time=06:39:28.10 bitrate=9057.6kbits/s speed=64.3x    frame=1437928 fps=3851 q=-1.0 size=26539264kB time=06:39:59.94 bitrate=9058.8kbits/s speed=64.3x    frame=1439557 fps=3851 q=-1.0 size=26572032kB time=06:40:27.09 bitrate=9059.7kbits/s speed=64.3x    frame=1442564 fps=3854 q=-1.0 size=26606080kB time=06:41:17.18 bitrate=9052.4kbits/s speed=64.3x    frame=1445406 fps=3856 q=-1.0 size=26643968kB time=06:42:04.50 bitrate=9047.5kbits/s speed=64.4x    frame=1448854 fps=3860 q=-1.0 size=26677760kB time=06:43:01.96 bitrate=9037.5kbits/s speed=64.4x    frame=1451377 fps=3862 q=-1.0 size=26710016kB time=06:43:44.00 bitrate=9032.7kbits/s speed=64.5x    frame=1454057 fps=3864 q=-1.0 size=26745600kB time=06:44:28.66 bitrate=9028.1kbits/s speed=64.5x    frame=1457280 fps=3867 q=-1.0 size=26779392kB time=06:45:22.35 bitrate=9019.6kbits/s speed=64.5x    frame=1459127 fps=3867 q=-1.0 size=26814720kB time=06:45:53.13 bitrate=9020.0kbits/s speed=64.5x    frame=1462137 fps=3870 q=-1.0 size=26849024kB time=06:46:43.23 bitrate=9013.0kbits/s speed=64.6x    frame=1463949 fps=3869 q=-1.0 size=26883072kB time=06:47:13.41 bitrate=9013.3kbits/s speed=64.6x    frame=1465783 fps=3869 q=-1.0 size=26917888kB time=06:47:43.99 bitrate=9013.7kbits/s speed=64.6x    frame=1468062 fps=3870 q=-1.0 size=26955520kB time=06:48:21.93 bitrate=9012.3kbits/s speed=64.6x    frame=1469836 fps=3869 q=-1.0 size=26988544kB time=06:48:51.49 bitrate=9012.5kbits/s speed=64.6x    frame=1472314 fps=3871 q=-1.0 size=27024640kB time=06:49:32.80 bitrate=9009.4kbits/s speed=64.6x    frame=1474601 fps=3872 q=-1.0 size=27062016kB time=06:50:10.89 bitrate=9007.9kbits/s speed=64.6x    frame=1476211 fps=3871 q=-1.0 size=27095552kB time=06:50:37.71 bitrate=9009.2kbits/s speed=64.6x    frame=1478002 fps=3871 q=-1.0 size=27131904kB time=06:51:07.53 bitrate=9010.4kbits/s speed=64.6x    frame=1480155 fps=3871 q=-1.0 size=27169792kB time=06:51:43.41 bitrate=9009.9kbits/s speed=64.6x    frame=1482367 fps=3872 q=-1.0 size=27204096kB time=06:52:20.27 bitrate=9007.8kbits/s speed=64.6x    frame=1484195 fps=3872 q=-1.0 size=27239424kB time=06:52:50.70 bitrate=9008.4kbits/s speed=64.6x    frame=1486289 fps=3872 q=-1.0 size=27274752kB time=06:53:25.62 bitrate=9007.4kbits/s speed=64.6x    frame=1488364 fps=3872 q=-1.0 size=27309568kB time=06:54:00.14 bitrate=9006.4kbits/s speed=64.6x    frame=1490239 fps=3872 q=-1.0 size=27347200kB time=06:54:31.40 bitrate=9007.5kbits/s speed=64.6x    frame=1492048 fps=3872 q=-1.0 size=27380480kB time=06:55:01.51 bitrate=9007.5kbits/s speed=64.6x    frame=1493682 fps=3871 q=-1.0 size=27414528kB time=06:55:28.76 bitrate=9008.9kbits/s speed=64.6x    frame=1496064 fps=3872 q=-1.0 size=27448576kB time=06:56:08.44 bitrate=9005.7kbits/s speed=64.6x    frame=1498361 fps=3873 q=-1.0 size=27481600kB time=06:56:46.67 bitrate=9002.8kbits/s speed=64.6x    frame=1500007 fps=3872 q=-1.0 size=27515648kB time=06:57:14.10 bitrate=9004.0kbits/s speed=64.6x    frame=1503007 fps=3875 q=-1.0 size=27551232kB time=06:58:04.08 bitrate=8997.7kbits/s speed=64.7x    frame=1504923 fps=3875 q=-1.0 size=27585280kB time=06:58:36.01 bitrate=8997.4kbits/s speed=64.7x    frame=1507546 fps=3877 q=-1.0 size=27618560kB time=06:59:19.68 bitrate=8992.6kbits/s speed=64.7x    frame=1509994 fps=3878 q=-1.0 size=27653120kB time=07:00:00.50 bitrate=8989.3kbits/s speed=64.7x    frame=1512268 fps=3879 q=-1.0 size=27687680kB time=07:00:38.34 bitrate=8987.0kbits/s speed=64.7x    frame=1514517 fps=3880 q=-1.0 size=27723264kB time=07:01:15.82 bitrate=8985.2kbits/s speed=64.7x    frame=1517345 fps=3882 q=-1.0 size=27758592kB time=07:02:02.94 bitrate=8979.9kbits/s speed=64.8x    frame=1519557 fps=3883 q=-1.0 size=27792384kB time=07:02:39.81 bitrate=8977.8kbits/s speed=64.8x    frame=1521389 fps=3882 q=-1.0 size=27826688kB time=07:03:10.31 bitrate=8978.1kbits/s speed=64.8x    frame=1523327 fps=3882 q=-1.0 size=27862528kB time=07:03:42.62 bitrate=8978.2kbits/s speed=64.8x    frame=1525114 fps=3882 q=-1.0 size=27896576kB time=07:04:12.39 bitrate=8978.7kbits/s speed=64.8x    frame=1527161 fps=3882 q=-1.0 size=27931136kB time=07:04:46.46 bitrate=8977.8kbits/s speed=64.8x    frame=1529038 fps=3882 q=-1.0 size=27966720kB time=07:05:17.77 bitrate=8978.2kbits/s speed=64.8x    frame=1530866 fps=3882 q=-1.0 size=28003072kB time=07:05:48.22 bitrate=8979.1kbits/s speed=64.8x    frame=1532661 fps=3881 q=-1.0 size=28037376kB time=07:06:18.08 bitrate=8979.6kbits/s speed=64.8x    frame=1534730 fps=3882 q=-1.0 size=28072448kB time=07:06:52.58 bitrate=8978.8kbits/s speed=64.8x    frame=1536740 fps=3882 q=-1.0 size=28107264kB time=07:07:26.06 bitrate=8978.2kbits/s speed=64.8x    frame=1538382 fps=3881 q=-1.0 size=28139008kB time=07:07:53.42 bitrate=8978.7kbits/s speed=64.8x    frame=1540057 fps=3881 q=-1.0 size=28171264kB time=07:08:21.30 bitrate=8979.3kbits/s speed=64.8x    frame=1541891 fps=3880 q=-1.0 size=28206848kB time=07:08:51.84 bitrate=8979.9kbits/s speed=64.8x    frame=1543742 fps=3880 q=-1.0 size=28241152kB time=07:09:22.69 bitrate=8980.1kbits/s speed=64.8x    frame=1545594 fps=3880 q=-1.0 size=28278016kB time=07:09:53.54 bitrate=8981.1kbits/s speed=64.7x    frame=1547515 fps=3880 q=-1.0 size=28313344kB time=07:10:25.58 bitrate=8981.1kbits/s speed=64.7x    frame=1549486 fps=3880 q=-1.0 size=28345856kB time=07:10:58.42 bitrate=8980.0kbits/s speed=64.7x    frame=1551390 fps=3880 q=-1.0 size=28381952kB time=07:11:30.11 bitrate=8980.5kbits/s speed=64.7x    frame=1553747 fps=3881 q=-1.0 size=28416512kB time=07:12:09.39 bitrate=8977.8kbits/s speed=64.8x    frame=1555556 fps=3880 q=-1.0 size=28451584kB time=07:12:39.51 bitrate=8978.4kbits/s speed=64.8x    frame=1557636 fps=3881 q=-1.0 size=28489984kB time=07:13:14.14 bitrate=8978.6kbits/s speed=64.8x    frame=1559543 fps=3881 q=-1.0 size=28526080kB time=07:13:45.93 bitrate=8979.0kbits/s speed=64.8x    frame=1561470 fps=3881 q=-1.0 size=28564480kB time=07:14:18.01 bitrate=8980.0kbits/s speed=64.8x    frame=1563533 fps=3881 q=-1.0 size=28601856kB time=07:14:52.41 bitrate=8979.9kbits/s speed=64.8x    frame=1566140 fps=3883 q=-1.0 size=28638208kB time=07:15:35.84 bitrate=8976.3kbits/s speed=64.8x    frame=1568160 fps=3883 q=-1.0 size=28676864kB time=07:16:09.49 bitrate=8976.9kbits/s speed=64.8x    frame=1570001 fps=3883 q=-1.0 size=28713984kB time=07:16:40.13 bitrate=8978.0kbits/s speed=64.8x    frame=1572182 fps=3883 q=-1.0 size=28747264kB time=07:17:16.48 bitrate=8976.0kbits/s speed=64.8x    frame=1574545 fps=3884 q=-1.0 size=28782336kB time=07:17:55.82 bitrate=8973.5kbits/s speed=64.8x    frame=1576487 fps=3884 q=-1.0 size=28819968kB time=07:18:28.18 bitrate=8974.1kbits/s speed=64.8x    frame=1578372 fps=3884 q=-1.0 size=28852992kB time=07:18:59.57 bitrate=8973.7kbits/s speed=64.8x    frame=1580338 fps=3884 q=-1.0 size=28889600kB time=07:19:32.36 bitrate=8973.9kbits/s speed=64.8x    frame=1582307 fps=3884 q=-1.0 size=28927232kB time=07:20:05.13 bitrate=8974.5kbits/s speed=64.8x    frame=1584153 fps=3884 q=-1.0 size=28962816kB time=07:20:35.86 bitrate=8975.1kbits/s speed=64.8x    frame=1587816 fps=3889 q=-1.0 Lsize=28988761kB time=07:21:36.91 bitrate=8962.4kbits/s speed=64.9x    
video:28306001kB audio:629560kB subtitle:0kB other streams:0kB global headers:0kB muxing overhead: 0.183858%
